<?xml version="1.0" ?><svg clip-rule="evenodd" fill-rule="evenodd" image-rendering="optimizeQuality" shape-rendering="geometricPrecision" text-rendering="geometricPrecision" viewBox="0 0 500 500" xmlns="http://www.w3.org/2000/svg"><defs><linearGradient gradientUnits="userSpaceOnUse" id="a" x1="249.999" x2="249.999" y1="300.284" y2="419.714"><stop offset="0" stop-color="#FCFCFD"/><stop offset="1" stop-color="#fff"/></linearGradient></defs><g><rect fill="url(#a)" height="157" rx="21" ry="21" stroke="#434242" stroke-width="10" width="440" x="30" y="281"/><rect fill="#008BFF" height="10.475" width="398.093" x="51" y="397"/><path d="M439 302c-6 0-11 5-11 11s5 10 11 10c5 0 10-4 10-10s-5-11-10-11zm-42 0c-6 0-11 5-11 11s5 10 11 10c5 0 10-4 10-10s-5-11-10-11zm-42 0c-6 0-11 5-11 11s5 10 11 10 10-4 10-10-4-11-10-11z" fill="#008BFF" stroke="#434242" stroke-width="7.5"/><path d="M110 265l6-3 8-148c-8-2-14-10-14-19 0-11 9-20 20-20s20 9 20 20c0 9-6 17-14 19l8 149c2 0 4 1 6 2 3 1 5 1 5 2l5 13h-60l5-13c0-1 3-1 5-2zm210 190h80c5 0 10-5 10-10v-5h-100v5c0 5 4 10 10 10zm-220 0h80c6 0 10-5 10-10v-5h-100v5c0 5 5 10 10 10z" fill="#434242"/><path d="M169 73c4 6 6 14 6 22s-2 16-6 23m-78-45c-4 6-6 14-6 22s2 16 6 23" fill="none" stroke="#2B2A29" stroke-linecap="round" stroke-width="10"/><path d="M195 133c7-12 10-25 10-38s-3-26-10-37m-130 75c-7-12-10-25-10-38s3-26 10-37" fill="none" stroke="#2B2A29" stroke-linecap="round" stroke-width="15"/></g></svg>