<?xml version="1.0" ?><svg clip-rule="evenodd" fill-rule="evenodd" image-rendering="optimizeQuality" shape-rendering="geometricPrecision" text-rendering="geometricPrecision" viewBox="0 0 500 500" xmlns="http://www.w3.org/2000/svg"><defs><linearGradient gradientUnits="userSpaceOnUse" id="a" x1="279.997" x2="279.997" y1="41.811" y2="101.491"><stop offset="0" stop-color="#FEFEFE"/><stop offset="1" stop-color="#E5E5E6"/></linearGradient><linearGradient gradientUnits="userSpaceOnUse" id="b" x1="187.499" x2="187.499" y1="225.85" y2="309.15"><stop offset="0" stop-color="#FEFEFE"/><stop offset="1" stop-color="#E5E5E6"/></linearGradient><linearGradient gradientUnits="userSpaceOnUse" id="c" x1="251.8" x2="251.8" y1="176.869" y2="300.737"><stop offset="0" stop-color="#FEFEFE"/><stop offset="1" stop-color="#E5E5E6"/></linearGradient><linearGradient gradientUnits="userSpaceOnUse" id="d" x1="252.498" x2="252.498" y1="129.607" y2="200.941"><stop offset="0" stop-color="#FEFEFE"/><stop offset="1" stop-color="#E5E5E6"/></linearGradient><linearGradient gradientUnits="userSpaceOnUse" id="e" x1="252.498" x2="252.498" y1="79.954" y2="151.288"><stop offset="0" stop-color="#FEFEFE"/><stop offset="1" stop-color="#E5E5E6"/></linearGradient><linearGradient gradientUnits="userSpaceOnUse" id="f" x1="249.998" x2="249.998" y1="466.662" y2="305"><stop offset="0" stop-color="#008BFF"/><stop offset="1" stop-color="#0af"/></linearGradient></defs><g><path d="M348 71c8 2 13 10 12 18-2 8-10 13-18 11l-130-28c-8-2-13-9-12-18 2-8 10-13 18-11l130 28z" fill="url(#a)" stroke="#434242" stroke-width="7.5"/><path d="M230 305c0 2 0 3-1 5h-28c-1-2-1-3-1-5 0-14-5-27-13-36-7-9-17-14-27-14-8 0-15-7-15-15s7-15 15-15c20 0 37 10 50 25 12 14 20 34 20 55z" fill="url(#b)" stroke="#434242" stroke-width="7.5"/><path d="M305 297c0 2 0 3-1 5h-28c-1-2-1-3-1-5 0-21 8-41 20-55 1-2 2-3 4-5l-142-30c-8-2-13-10-12-18 2-8 10-13 18-12l184 40c8 1 13 8 13 15 0 8-7 15-15 15-10 0-20 5-27 14-8 9-13 22-13 36z" fill="url(#c)" stroke="#434242" stroke-width="7.5"/><path d="M348 171c8 1 13 9 12 17-2 9-10 14-18 12l-185-40c-8-2-13-10-12-18 2-8 10-13 18-11l185 40z" fill="url(#d)" stroke="#434242" stroke-width="7.5"/><path d="M348 121c8 2 13 10 12 18-2 8-10 13-18 11l-185-40c-8-1-13-9-12-18 2-8 10-13 18-11l185 40z" fill="url(#e)" stroke="#434242" stroke-width="7.5"/><path d="M298 380v4c0 3-2 5-5 6l-85 9c-1 0-3 0-4-1s-2-3-2-4v-14c-8-20-27-15-27-30v-30h150v30c0 15-19 10-27 30zm27-65v-5c0-3-2-5-5-5h-140c-3 0-5 2-5 5v5h150zm-32 96l-85 9c-1 1-3 0-4-1s-2-2-2-4v-5c0-3 2-5 5-5l85-10c1 0 3 0 4 1s2 3 2 4v6c0 2-2 5-5 5zm0 21l-85 10c-1 0-3-1-4-2s-2-2-2-4v-5c0-3 2-5 5-5l85-10c1 0 3 1 4 2s2 2 2 4v5c0 3-2 5-5 5zm-16 13v8c0 6-5 9-11 10-11 4-21 4-32 0-6-1-11-4-11-10v-3c0-3 2-5 5-5l43-5c1 0 3 0 4 1s2 3 2 4z" fill="#434242" stroke="#434242" stroke-width="15"/><path d="M298 380v4c0 3-2 5-5 6l-85 9c-1 0-3 0-4-1s-2-3-2-4v-14c-8-20-27-15-27-30v-30h150v30c0 15-19 10-27 30zm27-65v-5c0-3-2-5-5-5h-140c-3 0-5 2-5 5v5h150zm-32 96l-85 9c-1 1-3 0-4-1s-2-2-2-4v-5c0-3 2-5 5-5l85-10c1 0 3 0 4 1s2 3 2 4v6c0 2-2 5-5 5zm0 21l-85 10c-1 0-3-1-4-2s-2-2-2-4v-5c0-3 2-5 5-5l85-10c1 0 3 1 4 2s2 2 2 4v5c0 3-2 5-5 5zm-16 13v8c0 6-5 9-11 10-11 4-21 4-32 0-6-1-11-4-11-10v-3c0-3 2-5 5-5l43-5c1 0 3 0 4 1s2 3 2 4z" fill="url(#f)"/></g></svg>