<?xml version="1.0" ?><svg clip-rule="evenodd" fill-rule="evenodd" image-rendering="optimizeQuality" shape-rendering="geometricPrecision" text-rendering="geometricPrecision" viewBox="0 0 500 500" xmlns="http://www.w3.org/2000/svg" xmlns:xlink="http://www.w3.org/1999/xlink"><defs><style type="text/css"><![CDATA[
    .str0 {stroke:#434242;stroke-width:10}
    .fil0 {fill:none}
    .fil1 {fill:#434242}
    .fil4 {fill:url(#id0)}
    .fil3 {fill:url(#id1)}
    .fil5 {fill:url(#id2)}
    .fil2 {fill:url(#id3)}
   ]]></style><linearGradient gradientUnits="userSpaceOnUse" id="id0" x1="65.002" x2="35.002" y1="345.359" y2="345.359"><stop offset="0" stop-color="#008BFF"/><stop offset="1" stop-color="#0af"/></linearGradient><linearGradient gradientUnits="userSpaceOnUse" id="id1" x1="68.96" x2="86.736" y1="350.359" y2="350.359"/><linearGradient gradientUnits="userSpaceOnUse" id="id2" x1="434.998" x2="464.998" y1="345.359" y2="345.359"/><linearGradient gradientUnits="userSpaceOnUse" id="id3" x1="431.04" x2="413.264" y1="350.359" y2="350.359"/></defs><g id="_1474453776"><path class="fil0 str0" d="M390 263h10c6 0 10 5 10 10v140c0 6-4 10-10 10h-10c-5 0-10-4-10-10v-140c0-5 5-10 10-10z"/><path class="fil1" d="M390 263h10c6 0 10 5 10 10v140c0 6-4 10-10 10h-10c-5 0-10-4-10-10v-140c0-5 5-10 10-10z" id="1"/><path class="fil0 str0" d="M423 273h-8v140h8c4 0 7-3 7-7v-125c0-4-3-8-7-8z"/><path class="fil2" d="M423 273h-8v140h8c4 0 7-3 7-7v-125c0-4-3-8-7-8z" id="1"/><path class="fil0 str0" d="M110 263h-10c-6 0-10 5-10 10v140c0 6 4 10 10 10h10c5 0 10-4 10-10v-140c0-5-5-10-10-10z"/><path class="fil1" d="M110 263h-10c-6 0-10 5-10 10v140c0 6 4 10 10 10h10c5 0 10-4 10-10v-140c0-5-5-10-10-10z" id="1"/><path class="fil0 str0" d="M78 273h7v140h-7c-5 0-8-3-8-7v-125c0-4 3-8 8-8z"/><path class="fil3" d="M78 273h7v140h-7c-5 0-8-3-8-7v-125c0-4 3-8 8-8z" id="1"/><path class="fil0 str0" d="M65 303v80c-14 0-25-11-25-25v-30c0-14 11-25 25-25z"/><path class="fil4" d="M65 303v80c-14 0-25-11-25-25v-30c0-14 11-25 25-25z" id="1"/><path class="fil0 str0" d="M435 303v80c14 0 25-11 25-25v-30c0-14-11-25-25-25z"/><path class="fil5" d="M435 303v80c14 0 25-11 25-25v-30c0-14-11-25-25-25z" id="1"/><path class="fil1" d="M61 330c0 10-10 10-10 0v-58c0-108 90-195 200-195 111 0 200 87 200 195v58c0 10-10 10-10 0v-68c0-83-85-150-190-150s-190 67-190 150v68z"/></g></svg>