<?xml version="1.0" ?><svg clip-rule="evenodd" fill-rule="evenodd" image-rendering="optimizeQuality" shape-rendering="geometricPrecision" text-rendering="geometricPrecision" viewBox="0 0 500 500" xmlns="http://www.w3.org/2000/svg"><defs><linearGradient gradientUnits="userSpaceOnUse" id="a" x1="360.001" x2="139.999" y1="301.973" y2="301.973"><stop offset="0" stop-color="#008BFF"/><stop offset="1" stop-color="#0af"/></linearGradient></defs><g><path d="M360 430v8c0 3-3 6-7 6h-206c-4 0-7-3-7-6v-8c0-3 3-6 6-6 6-1 13-5 25-20 14-17 36-28 61-31l6-123c-70-20-84-60-90-90h204c-6 30-20 70-90 90l6 123c25 3 47 14 61 31 12 15 19 19 25 20 3 0 6 3 6 6z" fill="url(#a)" stroke="#434242" stroke-linejoin="round" stroke-width="10"/><path d="M374 55c0 62-20 154-90 185-7 3-9 5-9 10s2 7 9 10c71 31 90 123 90 185m-248-390c0 62 20 154 90 185 7 3 9 5 9 10s-2 7-9 10c-71 31-90 123-90 185" fill="none" stroke="#434242" stroke-width="20"/><path d="M105 440h290c6 0 10 4 10 10v14c0 6-4 10-10 10h-290c-6 0-10-4-10-10v-14c0-6 4-10 10-10zm0-414h290c6 0 10 4 10 10v14c0 6-4 10-10 10h-290c-6 0-10-4-10-10v-14c0-6 4-10 10-10z" fill="#434242"/></g></svg>