<?xml version="1.0" ?><svg clip-rule="evenodd" fill-rule="evenodd" image-rendering="optimizeQuality" shape-rendering="geometricPrecision" text-rendering="geometricPrecision" viewBox="0 0 500 500" xmlns="http://www.w3.org/2000/svg"><defs><style type="text/css"><![CDATA[
    .str0 {stroke:#434242;stroke-width:15}
    .fil0 {fill:none}
    .fil1 {fill:#434242}
   ]]></style></defs><g id="Layer_x0020_1"><path class="fil0 str0" d="M280 40h180v180h-180v-180zm-240 240h180v180h-180v-180zm0-240h180v180h-180v-180z"/><path class="fil1" d="M330 90h80v80h-80v-80zm-240 0h80v80h-80v-80zm0 240h80v80h-80v-80zm180-50h40v40h-40v-40zm60 0h20v40h-20v-40zm100 0h40v40h-40v-40zm-160 70h60v40h-60v-40zm70 0h50v40h-50v-40zm90 0h40v40h-40v-40zm-160 70h40v40h-40v-40zm90-140h60v40h-60v-40zm40 70h20v40h-20v-40zm10 70h60v40h-60v-40zm-10 0h-50v40h50v-40zm-60 0h-20v40h20v-40z"/></g></svg>