<?xml version="1.0" ?><svg clip-rule="evenodd" fill-rule="evenodd" image-rendering="optimizeQuality" shape-rendering="geometricPrecision" text-rendering="geometricPrecision" viewBox="0 0 500 500" xmlns="http://www.w3.org/2000/svg"><defs><style type="text/css"><![CDATA[
    .str0 {stroke:#434242;stroke-width:10}
    .str1 {stroke:#434242;stroke-width:10;stroke-linejoin:round}
    .str2 {stroke:#434242;stroke-width:15}
    .fil3 {fill:none}
    .fil1 {fill:#FEFEFE}
    .fil0 {fill:#FFFFFF}
    .fil2 {fill:url(#id0)}
   ]]></style><linearGradient gradientUnits="userSpaceOnUse" id="id0" x1="249.999" x2="249.999" y1="218.751" y2="384.239"><stop offset="0" stop-color="#008BFF"/><stop offset="1" stop-color="#0af"/></linearGradient></defs><g id="Layer_x0020_1"><rect class="fil0" height="300" rx="20" ry="20" width="430" x="35" y="100"/><circle class="fil1 str0" r="30" transform="matrix(.943 .943 -.943 .943 120 180)"/><path class="fil2 str1" d="M465 290v90c0 11-9 20-20 20h-390c-11 0-20-9-20-20v-46l46-46c37-37 99-37 137 0l18 18 80-80c24-23 62-23 85 0l64 64z"/><rect class="fil3 str2" height="300" rx="20" ry="20" width="430" x="35" y="100"/></g></svg>