<?xml version="1.0" ?><svg clip-rule="evenodd" fill-rule="evenodd" image-rendering="optimizeQuality" shape-rendering="geometricPrecision" text-rendering="geometricPrecision" viewBox="0 0 500 500" xmlns="http://www.w3.org/2000/svg"><defs><linearGradient gradientUnits="userSpaceOnUse" id="a" x1="438.546" x2="61.624" y1="396.727" y2="396.727"><stop offset="0" stop-color="#008BFF"/><stop offset="1" stop-color="#0af"/></linearGradient></defs><g><path d="M360 169v-54c0-3-2-5-5-5h-20c-3 0-5-2-5-5v-20c0-3-2-5-5-5h-40c-1 0-3 0-4-1l-1-4v-30c0-1 0-3-1-4s-2-1-4-1h-50c-3 0-5 2-5 5v30c0 3-3 5-5 5h-40c-3 0-5 2-5 5v20c0 3-2 5-5 5h-19c-2 0-5 2-5 5v54c-22 0-31 17-23 36l67 144h135l62-144c9-22 0-32-22-36zm-40-7l-70-12-70 12v-27c0-3 2-5 5-5h22c3 0 4-2 5-5l8-20c1-3 2-5 5-5h50c3 0 4 2 5 5l8 20c1 3 2 5 5 5h22c3 0 5 2 5 5v27z" fill="#434242"/><path d="M439 417v43l-48-13c-15 0-31 13-47 13-15 0-31-13-47-13l-47 13-47-13-47 13c-16 0-32-13-47-13-16 0-32 13-47 13v-43c15 0 31-14 47-14 15 0 31 14 47 14l47-14 47 14 47-14c16 0 32 14 47 14 16 0 32-14 47-14l48 14zm0-70v43l-48-13c-15 0-31 13-47 13-15 0-31-13-47-13l-47 13-47-13-47 13c-16 0-32-13-47-13-16 0-32 13-47 13v-43c15 0 31-14 47-14 15 0 31 14 47 14l47-14 47 14 47-14c16 0 32 14 47 14 16 0 32-14 47-14l48 14z" fill="url(#a)" stroke="#434242" stroke-linejoin="round" stroke-width="10"/></g></svg>