<?xml version="1.0" ?><svg clip-rule="evenodd" fill-rule="evenodd" image-rendering="optimizeQuality" shape-rendering="geometricPrecision" text-rendering="geometricPrecision" viewBox="0 0 500 500" xmlns="http://www.w3.org/2000/svg"><defs><style type="text/css"><![CDATA[
    .str0 {stroke:#434242;stroke-width:40}
    .str1 {stroke:#434242;stroke-width:15}
    .fil2 {fill:none}
    .fil3 {fill:#434242}
    .fil0 {fill:url(#id0)}
    .fil1 {fill:url(#id1)}
   ]]></style><linearGradient gradientUnits="userSpaceOnUse" id="id0" x1="250" x2="250" y1="166.4" y2="333.6"><stop offset="0" stop-color="#FCFCFD"/><stop offset="1" stop-color="#fff"/></linearGradient><radialGradient cy="48%" fx="50%" fy="48%" id="id1"><stop offset="0" stop-color="#0af"/><stop offset="1" stop-color="#008BFF"/></radialGradient></defs><g id="Layer_x0020_1"><path class="fil0 str0" d="M460 250c-40-70-120-110-210-110s-170 40-210 110c40 70 120 110 210 110s170-40 210-110z"/><circle class="fil1" cx="250" cy="250" r="70"/><path class="fil2 str1" d="M308 178l14 14c2 2 2 5 0 7l-51 51 51 51c2 2 2 5 0 7l-14 14c-2 2-5 2-7 0l-51-51-51 51c-2 2-5 2-7 0l-14-14c-2-2-2-5 0-7l51-51-51-51c-2-2-2-5 0-7l14-14c2-2 5-2 7 0l51 51 51-51c2-2 5-2 7 0z"/><path class="fil3" d="M308 178l14 14c2 2 2 5 0 7l-51 51 51 51c2 2 2 5 0 7l-14 14c-2 2-5 2-7 0l-51-51-51 51c-2 2-5 2-7 0l-14-14c-2-2-2-5 0-7l51-51-51-51c-2-2-2-5 0-7l14-14c2-2 5-2 7 0l51 51 51-51c2-2 5-2 7 0z" id="1"/></g></svg>