<?xml version="1.0" ?><svg clip-rule="evenodd" fill-rule="evenodd" image-rendering="optimizeQuality" shape-rendering="geometricPrecision" text-rendering="geometricPrecision" viewBox="0 0 500 500" xmlns="http://www.w3.org/2000/svg"><defs><style type="text/css"><![CDATA[
    .str0 {stroke:#434242;stroke-width:10}
    .str1 {stroke:#434242;stroke-width:10;stroke-linecap:round}
    .fil2 {fill:none}
    .fil1 {fill:url(#id0)}
    .fil0 {fill:url(#id1)}
   ]]></style><linearGradient gradientUnits="userSpaceOnUse" id="id0" x1="165.267" x2="321.593" y1="393.331" y2="393.331"><stop offset="0" stop-color="#008BFF"/><stop offset="1" stop-color="#0af"/></linearGradient><linearGradient gradientUnits="userSpaceOnUse" id="id1" x1="278.71" x2="278.71" y1="86.054" y2="353.232"><stop offset="0" stop-color="#FCFCFD"/><stop offset="1" stop-color="#EDEDED"/></linearGradient></defs><g id="Layer_x0020_1"><path class="fil0 str0" d="M205 167v-53c0-9-8-17-18-17-9 0-17 8-17 17v166c0 14 10 30 10 40v65c0 5 4 10 10 10h95c5 0 10-4 10-10v-64c37-21 48-31 77-123l13-23c3-4 1-9-3-11-14-8-32-3-40 10l-2 4-18 32c-7 1-12-3-12-10v-119c0-9-8-17-18-17-9 0-17 8-17 17v-20c0-9-8-17-18-17-9 0-17 8-17 17v10c0-9-8-17-18-17-9 0-17 8-17 17v96z"/><path class="fil1 str0" d="M175 436c-5 0-10-4-10-10v-66c0-5 5-10 10-10h128c6 0 10 5 10 10v76h-138z"/><path class="fil2 str1" d="M322 210c-11 23-75 0-76 73"/></g></svg>