<?xml version="1.0" ?><svg clip-rule="evenodd" fill-rule="evenodd" image-rendering="optimizeQuality" shape-rendering="geometricPrecision" text-rendering="geometricPrecision" viewBox="0 0 500 500" xmlns="http://www.w3.org/2000/svg"><defs><style type="text/css"><![CDATA[
    .str0 {stroke:#434242;stroke-width:10}
    .fil0 {fill:#434242}
    .fil1 {fill:#008BFF}
   ]]></style></defs><g id="Layer_x0020_1"><rect class="fil0" height="30" width="190" x="40" y="191"/><rect class="fil0" height="30" width="140" x="40" y="101"/><rect class="fil0" height="30" width="230" x="40" y="371"/><rect class="fil0" height="420" width="20" x="301" y="40"/><rect class="fil0" height="30" width="100" x="40" y="280"/><path class="fil1 str0" d="M409 213v11h54c4 0 7 3 7 7v39c0 3-3 6-7 6h-54v11c0 9-2 12-5 14-4 5-13 5-18 0l-42-42c-4-4-4-14 0-18l42-42c5-4 14-4 18 0 3 3 5 5 5 14z"/></g></svg>