<?xml version="1.0" ?><svg clip-rule="evenodd" fill-rule="evenodd" image-rendering="optimizeQuality" shape-rendering="geometricPrecision" text-rendering="geometricPrecision" viewBox="0 0 500 500" xmlns="http://www.w3.org/2000/svg" xmlns:xlink="http://www.w3.org/1999/xlink"><defs><style type="text/css"><![CDATA[
    .fil0 {fill:#434242}
    .fil2 {fill:url(#id0)}
    .fil1 {fill:url(#id1)}
   ]]></style><linearGradient gradientUnits="userSpaceOnUse" id="id0" x1="375.184" x2="124.812" y1="236.003" y2="73.995"><stop offset="0" stop-color="#008BFF"/><stop offset="1" stop-color="#0af"/></linearGradient><linearGradient gradientUnits="userSpaceOnUse" id="id1" x1="124.812" x2="375.184" y1="263.997" y2="426.003"/></defs><g id="Layer_x0020_1"><path class="fil0" d="M400 55h30v30h-30v-30zm0 60h30v30h-30v-30zm0 60h30v30h-30v-30zm0 60h30v30h-30v-30zm0 60h30v30h-30v-30zm0 60h30v30h-30v-30zm0 60h30v30h-30v-30zm-338-375h376c7 0 12 6 12 12v396c0 7-5 12-12 12h-376c-7 0-12-6-12-12v-396c0-7 5-12 12-12zm8 15h30v30h-30v-30zm0 60h30v30h-30v-30zm0 60h30v30h-30v-30zm0 60h30v30h-30v-30zm0 60h30v30h-30v-30zm0 60h30v30h-30v-30zm0 60h30v30h-30v-30z"/><rect class="fil1" height="170" rx="5" ry="5" width="260" x="120" y="260"/><rect class="fil2" height="170" rx="5" ry="5" width="260" x="120" y="70"/></g></svg>