<?xml version="1.0" ?><svg clip-rule="evenodd" fill-rule="evenodd" image-rendering="optimizeQuality" shape-rendering="geometricPrecision" text-rendering="geometricPrecision" viewBox="0 0 500 500" xmlns="http://www.w3.org/2000/svg"><defs><style type="text/css"><![CDATA[
    .str1 {stroke:#434242;stroke-width:5}
    .str0 {stroke:#434242;stroke-width:15;stroke-linejoin:round}
    .fil0 {fill:#434242}
    .fil3 {fill:#0075D8}
    .fil4 {fill:#008BFF}
    .fil5 {fill:#289CFF}
    .fil1 {fill:#979798}
    .fil2 {fill:#CDCDCE}
   ]]></style></defs><g id="Layer_x0020_1"><path class="fil0 str0" d="M349 88l63 63c6 6 6 16 0 22l-201 201-128 43 43-128 201-201c6-6 16-6 22 0z"/><rect class="fil1" height="219.999" transform="matrix(-2.121 -2.121 .064 -.064 373.322 211.53)" width="39.999"/><polygon class="fil2" points="126,289 211,374 83,417"/><rect class="fil3" height="229.998" transform="matrix(.707 .707 -.707 .707 345.039 183.246)" width="39.997"/><rect class="fil4" height="230.001" transform="matrix(.707 .707 -.707 .707 316.755 154.959)" width="39.999"/><rect class="fil5" height="230.001" transform="matrix(.707 .707 -.707 .707 288.47 126.675)" width="40.001"/><path class="fil0 str1" d="M83 417l67-23c-4-10-9-19-17-27s-17-13-27-17l-23 67z"/></g></svg>