<?xml version="1.0" ?><svg clip-rule="evenodd" fill-rule="evenodd" image-rendering="optimizeQuality" shape-rendering="geometricPrecision" text-rendering="geometricPrecision" viewBox="0 0 500 500" xmlns="http://www.w3.org/2000/svg"><g><path d="M118 60h264c5 0 9 3 10 8l66 360c0 3 0 6-2 8-2 3-5 4-8 4h-396c-3 0-6-1-8-4-2-2-2-5-2-8l66-360c1-5 5-8 10-8z" fill="#434242"/><g fill="#fff"><path d="M220 425h60c-4-70-7-124-10-166h-40c-3 42-6 96-10 166zM231 237h38c-1-30-3-56-4-77h-30c-1 21-3 47-4 77zM236 154h28c0-16-1-30-2-43h-24c-1 13-2 27-2 43zM238 103h24c-1-10-2-19-2-28h-20c0 9-1 18-2 28z"/></g><path d="M60 440h20c12-86 23-160 32-226 8-57 15-108 22-154h-14c-7 46-15 97-24 154-11 66-22 140-36 226zm360 0h20c-14-86-25-160-36-226-9-57-17-108-24-154h-14c7 46 14 97 22 154 9 66 20 140 32 226z" fill="#008BFF"/></g></svg>