<?xml version="1.0" ?><svg clip-rule="evenodd" fill-rule="evenodd" image-rendering="optimizeQuality" shape-rendering="geometricPrecision" text-rendering="geometricPrecision" viewBox="0 0 500 500" xmlns="http://www.w3.org/2000/svg"><defs><style type="text/css"><![CDATA[
    .str0 {stroke:#434242;stroke-width:10}
    .fil0 {fill:#434242}
    .fil1 {fill:#008BFF}
   ]]></style></defs><g id="Layer_x0020_1"><rect class="fil0" height="30.002" width="190.001" x="230" y="191"/><rect class="fil0" height="30.004" width="140.001" x="230" y="101"/><rect class="fil0" height="30.001" width="230" x="230" y="371"/><rect class="fil0" height="419.999" width="19.999" x="180" y="40"/><rect class="fil0" height="30" width="100" x="230" y="280"/><path class="fil1 str0" d="M92 213v11h-55c-3 0-6 3-6 7v39c0 3 3 6 6 6h55v11c0 9 2 12 5 14 4 5 13 5 18 0l42-42c4-4 4-14 0-18l-42-42c-5-4-14-4-18 0-3 3-5 5-5 14z"/></g></svg>