<?xml version="1.0" ?><svg clip-rule="evenodd" fill-rule="evenodd" image-rendering="optimizeQuality" shape-rendering="geometricPrecision" text-rendering="geometricPrecision" viewBox="0 0 500 500" xmlns="http://www.w3.org/2000/svg"><defs><style type="text/css"><![CDATA[
    .str0 {stroke:#434242;stroke-width:10}
    .str1 {stroke:#EDEDED;stroke-width:15;stroke-linecap:round}
    .fil4 {fill:none}
    .fil3 {fill:#434242}
    .fil1 {fill:#0076D8}
    .fil2 {fill:#EDEDED}
    .fil0 {fill:url(#id0)}
   ]]></style><linearGradient gradientUnits="userSpaceOnUse" id="id0" x1="109.199" x2="390.799" y1="337.499" y2="337.499"><stop offset="0" stop-color="#0af"/><stop offset=".502" stop-color="#09f"/><stop offset="1" stop-color="#0af"/></linearGradient></defs><g id="Layer_x0020_1"><path class="fil0 str0" d="M105 205h290c8 0 15 7 15 15v235c0 8-7 15-15 15h-290c-8 0-15-7-15-15v-235c0-8 7-15 15-15z"/><path class="fil1" d="M378 210c-35 19-80 30-129 30s-94-11-129-30h258z"/><rect class="fil2 str0" height="90.001" width="319.998" x="90" y="340"/><path class="fil3 str0" d="M130 205h39v-62c0-45 36-82 81-82s81 37 81 82v62h39v-62c0-66-54-120-120-120s-120 54-120 120v62z"/><rect class="fil3" height="78.715" transform="matrix(.133 0 .238 1.143 100 340)" width="225.558"/><rect class="fil3" height="78.715" transform="matrix(.133 0 .238 1.143 169.997 340)" width="225.558"/><rect class="fil3" height="78.715" transform="matrix(.133 0 .238 1.143 239.997 340)" width="225.558"/><rect class="fil3" height="78.715" transform="matrix(.133 0 .238 1.143 309.994 340)" width="225.558"/><polygon class="fil3" points="380,340 410,340 410,430 399,430"/><path class="fil4 str1" d="M250 43c-37 0-71 20-89 51"/><path class="fil1" d="M250 445c45 0 87 7 122 20h-244c35-13 77-20 122-20z"/></g></svg>