<?xml version="1.0" ?><svg clip-rule="evenodd" fill-rule="evenodd" image-rendering="optimizeQuality" shape-rendering="geometricPrecision" text-rendering="geometricPrecision" viewBox="0 0 500 500" xmlns="http://www.w3.org/2000/svg"><defs><radialGradient cx="249.999" cy="242" fx="249.999" fy="242" gradientUnits="userSpaceOnUse" id="a" r="209.826"><stop offset="0" stop-color="#0af"/><stop offset="1" stop-color="#008BFF"/></radialGradient></defs><path d="M136 340l60-60c5-5 10-10 20-10s20 10 20 20v20c0 5 5 10 10 10h64c36 0 65-27 69-61 1-5 5-9 10-9h61c3 0 5 1 7 3s3 5 3 8c-6 78-71 139-150 139h-64c-5 0-10 5-10 10v20c0 10-10 20-20 20s-15-5-20-10l-60-60c-14-13-14-27 0-40zm228-180l-60 60c-5 5-10 10-20 10s-20-10-20-20v-20c0-5-5-10-10-10h-64c-36 0-65 27-69 61-1 5-5 9-10 9h-61c-3 0-5-1-7-3s-3-5-3-8c6-78 71-139 150-139h64c5 0 10-5 10-10v-20c0-10 10-20 20-20s15 5 20 10l60 60c14 13 14 27 0 40z" fill="url(#a)" stroke="#434242" stroke-width="10"/></svg>