<?xml version="1.0" ?><svg clip-rule="evenodd" fill-rule="evenodd" image-rendering="optimizeQuality" shape-rendering="geometricPrecision" text-rendering="geometricPrecision" viewBox="0 0 500 500" xmlns="http://www.w3.org/2000/svg"><defs><style type="text/css"><![CDATA[
    .str0 {stroke:#2B2A29;stroke-width:10}
    .fil0 {fill:url(#id0)}
   ]]></style><radialGradient cy="48%" fx="50%" fy="48%" id="id0"><stop offset="0" stop-color="#0af"/><stop offset="1" stop-color="#008BFF"/></radialGradient></defs><path class="fil0 str0" d="M308 366h-18v-77h77v18c0 14 3 17 7 21 7 7 21 7 28 0l64-64c7-7 7-21 0-28l-64-64c-7-7-21-7-28 0-4 4-7 7-7 21v16h-77v-75h18c14 0 17-3 21-7 7-7 7-21 0-28l-64-64c-7-7-21-7-28 0l-64 64c-7 7-7 21 0 28 4 4 7 7 22 7h15v75h-75v-16c0-14-3-17-7-21-7-7-21-7-28 0l-64 64c-7 7-7 21 0 28l64 64c7 7 21 7 28 0 4-4 7-7 7-21v-18h75v77h-15c-15 0-18 3-22 7-7 7-7 21 0 28l64 64c7 7 21 7 28 0l64-64c7-7 7-21 0-28-4-4-7-7-21-7z" id="Layer_x0020_1"/></svg>