<?xml version="1.0" ?><svg clip-rule="evenodd" fill-rule="evenodd" image-rendering="optimizeQuality" shape-rendering="geometricPrecision" text-rendering="geometricPrecision" viewBox="0 0 500 500" xmlns="http://www.w3.org/2000/svg"><defs><linearGradient gradientUnits="userSpaceOnUse" id="a" x1="249.998" x2="249.998" y1="61" y2="439"><stop offset="0" stop-color="#FDFEFE"/><stop offset=".259" stop-color="#CDCDCE"/><stop offset=".749" stop-color="#fff"/><stop offset=".929" stop-color="#FCFCFD"/><stop offset="1" stop-color="#AAAAAB"/></linearGradient></defs><g><path d="M120 40h320c-15 0-30 15-30 30v360c0 15-15 30-30 30h-320c15 0 30-15 30-30v-360c0-15 15-30 30-30z" fill="url(#a)" stroke="#434242" stroke-linejoin="round" stroke-width="15"/><path d="M120 390h260m-260-25h260m-260-25h260m-260-25h260m-260-25h260m-260-25h260m-260-25h260m-260-25h260m-160-25h160m-160-25h160m-160-25h160m-160-25h160" fill="none" stroke="#008BFF" stroke-linecap="round" stroke-width="7.5"/><path d="M189 114l1 19h-2c-2-9-5-14-15-14h-11v62c0 6 0 11 8 11h3v2h-34v-2h3c8 0 8-5 8-11v-62h-9c-10 0-15 3-16 14h-2l1-19h65z" fill="#008BFF"/></g></svg>