<?xml version="1.0" ?><svg clip-rule="evenodd" fill-rule="evenodd" image-rendering="optimizeQuality" shape-rendering="geometricPrecision" text-rendering="geometricPrecision" viewBox="0 0 500 500" xmlns="http://www.w3.org/2000/svg"><defs><linearGradient gradientUnits="userSpaceOnUse" id="a" x1="460.6" x2="40.594" y1="250.598" y2="250.598"><stop offset="0" stop-color="#008BFF"/><stop offset="1" stop-color="#0af"/></linearGradient></defs><path d="M161 421l-6-6c-4-4-4-10 0-14l91-91c4-4 4-10 0-14l-42-43c-4-4-10-4-14 0l-91 91c-4 4-11 4-15 0l-3-3c-10-10-15-10-20-10-10 0-20 10-20 20v90c0 10 10 20 20 20h90c10 0 20-10 20-20 0-5 0-10-10-20zm149-175l91-91c4-4 10-4 14 0l6 6c10 10 15 10 20 10 10 0 20-10 20-20v-90c0-10-10-20-20-20h-90c-10 0-20 10-20 20 0 5 0 10 10 20l3 3c4 4 4 11 0 15l-91 91c-4 4-4 10 0 14l43 42c4 4 10 4 14 0z" fill="url(#a)" stroke="#434242" stroke-width="10"/></svg>