<?xml version="1.0" ?><svg clip-rule="evenodd" fill-rule="evenodd" image-rendering="optimizeQuality" shape-rendering="geometricPrecision" text-rendering="geometricPrecision" viewBox="0 0 500 500" xmlns="http://www.w3.org/2000/svg"><defs><style type="text/css"><![CDATA[
    .str1 {stroke:#434242;stroke-width:7.5;stroke-linejoin:round}
    .str0 {stroke:#434242;stroke-width:10;stroke-linejoin:round}
    .fil0 {fill:#434242}
    .fil1 {fill:#DDDEDE}
    .fil2 {fill:#FFFFFF}
    .fil3 {fill:url(#id0)}
   ]]></style><linearGradient gradientUnits="userSpaceOnUse" id="id0" x1="459.999" x2="39.999" y1="378.236" y2="378.236"><stop offset="0" stop-color="#008BFF"/><stop offset="1" stop-color="#0af"/></linearGradient></defs><g id="Layer_x0020_1"><polygon class="fil0 str0" points="40,316 460,316 400,220 100,220"/><rect class="fil1 str1" height="260" rx="20" ry="20" transform="matrix(0 .846 .846 0 140.002 62.309)" width="420"/><polygon class="fil2 str1" points="140,397 140,79 275,240"/><path class="fil2 str1" d="M322 418h21c9 0 17-8 17-17v-322c0-9-8-17-17-17h-21l-93 161c-9 13-9 21 0 34l93 161z"/><path class="fil3 str0" d="M40 316h130v39c0 8 7 15 15 15h130c8 0 15-7 15-15v-39h130v99c0 14-11 25-25 25h-370c-14 0-25-11-25-25v-99z"/></g></svg>