<?xml version="1.0" ?><svg clip-rule="evenodd" fill-rule="evenodd" image-rendering="optimizeQuality" shape-rendering="geometricPrecision" text-rendering="geometricPrecision" viewBox="0 0 500 500" xmlns="http://www.w3.org/2000/svg"><defs><linearGradient gradientUnits="userSpaceOnUse" id="a" x1="512.533" x2="-73.419" y1="95.775" y2="434.075"><stop offset="0" stop-color="#008BFF"/><stop offset="1" stop-color="#0af"/></linearGradient></defs><g stroke="#434242" stroke-linejoin="round" stroke-width="10"><path d="M278 343c11-5 20-12 27-23 33 27 57 59 81 92-6 14-31 29-47 38-15 9-42-4-59-12-77-37-187-227-180-312 2-18 4-49 19-57 16-9 41-23 56-22 17 38 33 75 40 117-13 0-24 4-34 11-31 30 56 181 97 168z" fill="url(#a)"/><path d="M355 298c-18-1-26 4-39 12 33 27 57 59 81 92 7-10 15-26 14-38-3-15-42-62-56-66zm-96-168c-8 17-17 22-30 29-7-42-23-79-39-116 12-1 30 0 39 6 12 11 33 68 30 81z" fill="#434242"/></g></svg>