<?xml version="1.0" ?><svg clip-rule="evenodd" fill-rule="evenodd" image-rendering="optimizeQuality" shape-rendering="geometricPrecision" text-rendering="geometricPrecision" viewBox="0 0 500 500" xmlns="http://www.w3.org/2000/svg"><defs><linearGradient gradientUnits="userSpaceOnUse" id="a" x1="439.356" x2="60.64" y1="250.185" y2="250.185"><stop offset="0" stop-color="#008BFF"/><stop offset="1" stop-color="#0af"/></linearGradient></defs><g stroke="#434242"><circle cx="250" cy="250" fill="none" r="165" stroke-width="20"/><path d="M250 355c8 0 15 7 15 15v85c0 9-7 15-15 15s-15-6-15-15v-85c0-8 7-15 15-15zm0-325c8 0 15 7 15 15v85c0 8-7 15-15 15s-15-7-15-15v-85c0-8 7-15 15-15zm220 220c0 8-7 15-15 15h-85c-8 0-15-7-15-15s7-15 15-15h85c8 0 15 7 15 15zm-325 0c0 8-7 15-15 15h-85c-8 0-15-7-15-15s7-15 15-15h85c8 0 15 7 15 15z" fill="url(#a)" stroke-width="10"/></g></svg>