<?xml version="1.0" ?><svg clip-rule="evenodd" fill-rule="evenodd" image-rendering="optimizeQuality" shape-rendering="geometricPrecision" text-rendering="geometricPrecision" viewBox="0 0 500 500" xmlns="http://www.w3.org/2000/svg"><defs><linearGradient gradientUnits="userSpaceOnUse" id="a" x1="472.836" x2="99.996" y1="241.162" y2="241.162"><stop offset="0" stop-color="#008BFF"/><stop offset="1" stop-color="#0af"/></linearGradient></defs><g stroke="#434242"><path d="M201 30h140c11 0 20 9 20 20v400c0 11-9 20-20 20h-280c-11 0-20-9-20-20v-260l160-160z" fill="#fff" stroke-linecap="round" stroke-linejoin="round" stroke-width="15"/><path d="M171 190h-130l160-160v130c0 17-14 30-30 30z" fill="#fff" stroke-linecap="round" stroke-linejoin="round" stroke-width="10"/><path d="M461 224l-84-84c-4-4-8-8-16-8-9 0-17 8-17 17v42c0 4-4 8-9 8h-92c-79 0-143 64-143 143 0 8 8 8 8 0 0-32 27-59 59-59h168c5 0 9 4 9 9v42c0 8 8 16 17 16 8 0 12-4 16-8l84-84c12-11 12-22 0-34z" fill="url(#a)" stroke-width="10"/></g></svg>