<?xml version="1.0" ?><svg clip-rule="evenodd" fill-rule="evenodd" image-rendering="optimizeQuality" shape-rendering="geometricPrecision" text-rendering="geometricPrecision" viewBox="0 0 500 500" xmlns="http://www.w3.org/2000/svg"><defs><style type="text/css"><![CDATA[
    .str1 {stroke:#434242;stroke-width:10;stroke-linejoin:round}
    .str0 {stroke:#434242;stroke-width:20;stroke-linejoin:round}
    .fil0 {fill:none}
    .fil2 {fill:url(#id0)}
    .fil1 {fill:url(#id1)}
   ]]></style><linearGradient gradientUnits="userSpaceOnUse" id="id0" x1="440.764" x2="355.062" y1="274.71" y2="274.71"><stop offset="0" stop-color="#008BFF"/><stop offset="1" stop-color="#0af"/></linearGradient><linearGradient gradientUnits="userSpaceOnUse" id="id1" x1="295.248" x2="61.958" y1="247.167" y2="247.167"><stop offset="0" stop-color="#FCFCFD"/><stop offset="1" stop-color="#fff"/></linearGradient></defs><g id="_1317830640"><path class="fil0 str0" d="M59 208c0 8 7 15 15 15h105c10 0 10 10 0 10h-25c-9 0-15 7-15 15s6 15 15 15h40c10 0 10 10 0 10h-25c-9 0-15 7-15 15s6 15 15 15h40c10 0 10 10 0 10h-25c-9 0-15 7-15 15s6 15 15 15h115c10 0 20-6 25-14 2-3 4-7 4-11 1-3 4-3 6-2l21 9v-102h-26c0-9-4-17-10-22-2-2-5-4-7-5l-75-43c-7-4-16-1-20 6-5 5-1 17 5 20l24 14h-172c-8 0-15 7-15 15z"/><path class="fil1" d="M59 208c0 8 7 15 15 15h105c10 0 10 10 0 10h-25c-9 0-15 7-15 15s6 15 15 15h40c10 0 10 10 0 10h-25c-9 0-15 7-15 15s6 15 15 15h40c10 0 10 10 0 10h-25c-9 0-15 7-15 15s6 15 15 15h115c10 0 20-6 25-14 2-3 4-7 4-11 1-3 4-3 6-2l21 9v-102h-26c0-9-4-17-10-22-2-2-5-4-7-5l-75-43c-7-4-16-1-20 6-5 5-1 17 5 20l24 14h-172c-8 0-15 7-15 15z" id="1"/><path class="fil2 str1" d="M441 339c0 5-5 10-10 10h-66c-5 0-10-5-10-10v-128c0-6 5-10 10-10h76v138z"/></g></svg>