<?xml version="1.0" ?><svg clip-rule="evenodd" fill-rule="evenodd" image-rendering="optimizeQuality" shape-rendering="geometricPrecision" text-rendering="geometricPrecision" viewBox="0 0 500 500" xmlns="http://www.w3.org/2000/svg"><defs><linearGradient gradientUnits="userSpaceOnUse" id="a" x1="401.544" x2="98.456" y1="98.456" y2="401.544"><stop offset="0" stop-color="#008BFF"/><stop offset="1" stop-color="#0af"/></linearGradient></defs><path d="M193 134h7c6 0 10 5 10 10v212c0 5-4 10-10 10h-7c-14 0-17 3-21 7-7 7-7 21 0 28l64 64c7 7 21 7 28 0l64-64c7-7 7-21 0-28-4-4-7-7-21-7h-7c-6 0-10-5-10-10v-212c0-5 4-10 10-10h7c14 0 17-3 21-7 7-7 7-21 0-28l-64-64c-7-7-21-7-28 0l-64 64c-7 7-7 21 0 28 4 4 7 7 21 7z" fill="url(#a)" stroke="#2B2A29" stroke-width="10"/></svg>