<?xml version="1.0" ?><svg clip-rule="evenodd" fill-rule="evenodd" image-rendering="optimizeQuality" shape-rendering="geometricPrecision" text-rendering="geometricPrecision" viewBox="0 0 500 500" xmlns="http://www.w3.org/2000/svg"><defs><style type="text/css"><![CDATA[
    .str2 {stroke:#434242;stroke-width:10;stroke-linejoin:round}
    .str1 {stroke:#434242;stroke-width:15}
    .str0 {stroke:#FEFEFE;stroke-width:15;stroke-linecap:round}
    .fil1 {fill:none}
    .fil0 {fill:#434242}
    .fil2 {fill:url(#id0)}
    .fil3 {fill:url(#id1)}
   ]]></style><linearGradient gradientUnits="userSpaceOnUse" id="id0" x1="406.153" x2="93.844" y1="340" y2="340"><stop offset="0" stop-color="#008BFF"/><stop offset="1" stop-color="#0af"/></linearGradient><linearGradient gradientUnits="userSpaceOnUse" id="id1" x1="249.999" x2="249.999" y1="301.661" y2="399.877"><stop offset="0" stop-color="#FCFCFD"/><stop offset="1" stop-color="#fff"/></linearGradient></defs><g id="Layer_x0020_1"><path class="fil0" d="M250 20c68 0 124 56 124 124v56h-46v-57c0-43-35-78-78-78s-78 35-78 78v57h-46v-56c0-68 56-124 124-124z"/><path class="fil1 str0" d="M233 44c-36 6-66 32-78 66"/><path class="fil2 str1" d="M406 324c0 86-70 156-156 156s-156-70-156-156v-102c0-12 10-22 21-22h270c11 0 21 10 21 22v102z"/><path class="fil3 str2" d="M250 286c18 0 32 15 32 32 0 10-4 18-10 24l21 73h-86l21-73c-6-6-10-14-10-24 0-17 14-32 32-32z"/></g></svg>