<?xml version="1.0" ?><svg clip-rule="evenodd" fill-rule="evenodd" image-rendering="optimizeQuality" shape-rendering="geometricPrecision" text-rendering="geometricPrecision" viewBox="0 0 500 500" xmlns="http://www.w3.org/2000/svg"><defs><linearGradient gradientUnits="userSpaceOnUse" id="a" x1="470" x2="30.002" y1="249.999" y2="249.999"><stop offset="0" stop-color="#008BFF"/><stop offset="1" stop-color="#0af"/></linearGradient></defs><path d="M323 106c85 20 147 75 147 139 0 71-75 130-175 143v40c0 8-8 16-16 16-9 0-13-4-17-8l-49-49c-11-11-11-22 0-33l49-49c4-4 8-8 17-8 8 0 16 8 16 16v33c77-14 133-61 133-117 0-50-45-93-109-111l4-12zm-39-13l-32-32c-2-2-5-5-10-5s-11 5-11 11v32c-112 6-201 69-201 146 0 62 58 115 139 136l13-41c-65-18-110-61-110-111 0-62 70-113 159-120v31c0 5 6 10 11 10s8-2 10-5l32-31c7-7 7-14 0-21z" fill="url(#a)" stroke="#434242" stroke-linejoin="round" stroke-width="10"/></svg>