<?xml version="1.0" ?><svg clip-rule="evenodd" fill-rule="evenodd" image-rendering="optimizeQuality" shape-rendering="geometricPrecision" text-rendering="geometricPrecision" viewBox="0 0 500 500" xmlns="http://www.w3.org/2000/svg"><defs><radialGradient cx="250" cy="264.999" fx="250" fy="264.999" gradientUnits="userSpaceOnUse" id="a" r="206.799"><stop offset="0" stop-color="#fff"/><stop offset=".588" stop-color="#f5f5f5"/><stop offset="1" stop-color="#979798"/></radialGradient></defs><g><circle cx="250" cy="265" fill="#008BFF" r="205" stroke="#434242" stroke-width="10"/><circle cx="250" cy="265" fill="url(#a)" r="165" stroke="#434242" stroke-width="10"/><path d="M203 70c32-7 63-7 94 0 3 1 5-2 5-5v-40c0-3-2-5-5-5h-94c-3 0-5 2-5 5v40c0 3 2 6 5 5z" fill="#434242"/><path d="M78 123l2-2c2-2 5-2 7 0l7 7c2 2 6 2 7 0l25-24c2-2 2-5 0-7l-7-7c-2-2-2-5 0-7l2-2c2-2 2-6 0-8l-17-16c-2-2-5-2-7 0l-43 43c-2 1-2 5 0 7l17 16c2 2 5 2 7 0z" fill="#434242"/><path d="M250 104v27m0 293v-26m160-134h-26m-294 0h27m213-138l-13 23m-147 254l13-23m206-36l-23-13m-255-147l23 14m255-14l-23 14m-255 146l23-13m196 72l-13-23m-147-254l13 23" fill="none" stroke="#434242" stroke-linecap="round" stroke-width="10"/><path d="M292 109l-7 26m-77 284l7-25m190-88l-26-7m-284-76l26 7m242-79l-18 19m-208 208l18-19m208 19l-18-19m-208-208l18 19m250 53l-26 7m-284 76l26-7m171 120l-7-25m-77-285l7 26" fill="none" stroke="#434242" stroke-linecap="round" stroke-width="5"/><line fill="none" stroke="#E31E24" stroke-linecap="round" stroke-width="10" x1="206" x2="363" y1="253" y2="295"/><line fill="none" stroke="#434242" stroke-linecap="round" stroke-width="15" x1="267" x2="201" y1="295" y2="180"/><circle cx="250" cy="265" fill="#434242" r="20"/></g></svg>