<?xml version="1.0" ?><svg clip-rule="evenodd" fill-rule="evenodd" image-rendering="optimizeQuality" shape-rendering="geometricPrecision" text-rendering="geometricPrecision" viewBox="0 0 500 500" xmlns="http://www.w3.org/2000/svg"><defs><linearGradient gradientUnits="userSpaceOnUse" id="a" x1="252.694" x2="252.694" y1="329.951" y2="155.951"><stop offset="0" stop-color="#008BFF"/><stop offset="1" stop-color="#0af"/></linearGradient></defs><g stroke="#434242"><path d="M163 93h180c22 0 40 18 40 40v220c0 22-18 40-40 40h-180c-22 0-40-18-40-40v-220c0-22 18-40 40-40z" fill="url(#a)" stroke-width="10"/><path d="M178 303c11 0 20 9 20 20s-9 20-20 20-20-9-20-20 9-20 20-20zm150 0c11 0 20 9 20 20s-9 20-20 20-20-9-20-20 9-20 20-20zm-120-186h90c5 0 10 4 10 10 0 5-5 10-10 10h-90c-6 0-10-5-10-10 0-6 4-10 10-10zm-45 46h180c8 0 15 7 15 15v70c0 8-7 15-15 15h-180c-9 0-15-7-15-15v-70c0-8 6-15 15-15z" fill="#fff" stroke-width="10"/><path d="M354 415l35 43m-238-43l-35 43m52-18h170" fill="none" stroke-linecap="round" stroke-width="20"/><line fill="none" stroke-linecap="round" stroke-width="25" x1="198" x2="308" y1="45" y2="45"/></g></svg>