<?xml version="1.0" ?><svg clip-rule="evenodd" fill-rule="evenodd" image-rendering="optimizeQuality" shape-rendering="geometricPrecision" text-rendering="geometricPrecision" viewBox="0 0 500 500" xmlns="http://www.w3.org/2000/svg"><defs><style type="text/css"><![CDATA[
    .str1 {stroke:#434242;stroke-width:10}
    .str0 {stroke:#434242;stroke-width:10;stroke-linejoin:round}
    .str2 {stroke:#434242;stroke-width:15;stroke-linejoin:round}
    .fil3 {fill:none}
    .fil1 {fill:#434242}
    .fil4 {fill:url(#id0)}
    .fil2 {fill:url(#id1)}
    .fil0 {fill:url(#id2)}
   ]]></style><linearGradient gradientUnits="userSpaceOnUse" id="id0" x1="370.875" x2="129.123" y1="295.974" y2="295.974"><stop offset="0" stop-color="#008BFF"/><stop offset="1" stop-color="#0af"/></linearGradient><linearGradient gradientUnits="userSpaceOnUse" id="id1" x1="192.404" x2="192.404" y1="151.314" y2="340.61"><stop offset="0" stop-color="#FCFCFD"/><stop offset="1" stop-color="#fff"/></linearGradient><linearGradient gradientUnits="userSpaceOnUse" id="id2" x1="335.199" x2="164.799" y1="227.5" y2="227.5"><stop offset="0" stop-color="#CDCDCE"/><stop offset=".502" stop-color="#fff"/><stop offset="1" stop-color="#CDCDCE"/></linearGradient></defs><g id="Layer_x0020_1"><path class="fil0" d="M72 371c60-44 95-110 95-166v-35c0-52 24-86 83-86s83 34 83 86v35c0 56 35 122 94 166h-355z"/><path class="fil1 str0" d="M78 425c-24 0-28-18-17-33h378c11 15 7 33-17 33h-344z"/><path class="fil2" d="M135 371c36-41 56-89 56-131v-35c0-45 17-75 59-84v2c-24 14-35 40-35 75v36c0 44-16 95-52 137h-28z"/><path class="fil1" d="M250 435h-35c0 19 16 35 35 35s35-16 35-35h-35z"/><path class="fil1" d="M250 89c17 0 30-13 30-30 0-16-13-30-30-30s-30 14-30 30c0 17 13 30 30 30zm0-15c8 0 15-6 15-15 0-8-7-15-15-15s-15 7-15 15c0 9 7 15 15 15z"/><path class="fil3" d="M72 371c60-44 95-110 95-166v-35c0-52 24-86 83-86s83 34 83 86v35c0 56 35 122 94 166h-355z"/><path class="fil3 str0" d="M78 425c-24 0-28-18-17-33h378c11 15 7 33-17 33h-344z"/><path class="fil3" d="M135 371c36-41 56-89 56-131v-35c0-45 17-75 59-84v2c-24 14-35 40-35 75v36c0 44-16 95-52 137h-28z"/><path class="fil3" d="M250 435h-35c0 19 16 35 35 35s35-16 35-35h-35z"/><path class="fil4 str1" d="M129 313c8-11 14-22 20-34h202c6 12 12 23 20 34h-242z"/><path class="fil3" d="M250 89c17 0 30-13 30-30 0-16-13-30-30-30s-30 14-30 30c0 17 13 30 30 30zm0-15c8 0 15-6 15-15 0-8-7-15-15-15s-15 7-15 15c0 9 7 15 15 15z"/><path class="fil3 str2" d="M72 371c60-44 95-110 95-166v-35c0-52 24-86 83-86s83 34 83 86v35c0 56 35 122 94 166h-355z"/></g></svg>