<?xml version="1.0" ?><svg clip-rule="evenodd" fill-rule="evenodd" image-rendering="optimizeQuality" shape-rendering="geometricPrecision" text-rendering="geometricPrecision" viewBox="0 0 500 500" xmlns="http://www.w3.org/2000/svg"><defs><linearGradient gradientUnits="userSpaceOnUse" id="a" x1="250" x2="250" y1="284.547" y2="122.267"><stop offset="0" stop-color="#008BFF"/><stop offset="1" stop-color="#0af"/></linearGradient></defs><g><circle cx="250" cy="250" fill="none" r="210" stroke="#434242" stroke-width="30"/><rect fill="#434242" height="29.998" rx="10" ry="10" width="260" x="120" y="350"/><path d="M270 90l60 60c5 5 10 10 10 20s-10 20-20 20h-40v125c0 8-7 15-15 15h-30c-8 0-15-7-15-15v-125h-40c-10 0-20-10-20-20s5-15 10-20l60-60c13-13 27-13 40 0z" fill="url(#a)" stroke="#434242" stroke-width="10"/></g></svg>