<?xml version="1.0" ?><svg clip-rule="evenodd" fill-rule="evenodd" image-rendering="optimizeQuality" shape-rendering="geometricPrecision" text-rendering="geometricPrecision" viewBox="0 0 500 500" xmlns="http://www.w3.org/2000/svg"><defs><linearGradient gradientUnits="userSpaceOnUse" id="a" x1="249.997" x2="249.997" y1="82.801" y2="417.199"><stop offset="0" stop-color="#FCFCFD"/><stop offset="1" stop-color="#fff"/></linearGradient><linearGradient gradientUnits="userSpaceOnUse" id="b" x1="249.998" x2="249.998" y1="62.399" y2="137.599"><stop offset="0" stop-color="#008BFF"/><stop offset="1" stop-color="#0af"/></linearGradient></defs><g><path d="M100 30h300c11 0 20 9 20 20v400c0 11-9 20-20 20h-300c-11 0-20-9-20-20v-400c0-11 9-20 20-20z" fill="url(#a)" stroke="#434242" stroke-width="10"/><path d="M120 60h260c6 0 10 4 10 10v60c0 6-4 10-10 10h-260c-6 0-10-4-10-10v-60c0-6 4-10 10-10z" fill="url(#b)" stroke="#434242" stroke-width="10"/><polygon fill="#434242" points="190,175 235,175 235,220 190,220"/><polygon fill="#434242" points="265,175 310,175 310,220 265,220"/><polygon fill="#434242" points="335,175 380,175 380,220 335,220"/><polygon fill="#434242" points="115,175 160,175 160,220 115,220"/><polygon fill="#434242" points="190,245 235,245 235,290 190,290"/><polygon fill="#434242" points="265,245 310,245 310,290 265,290"/><polygon fill="#434242" points="335,245 380,245 380,290 335,290"/><polygon fill="#434242" points="115,245 160,245 160,290 115,290"/><polygon fill="#434242" points="190,320 235,320 235,365 190,365"/><polygon fill="#434242" points="265,320 310,320 310,365 265,365"/><polygon fill="#434242" points="115,320 160,320 160,365 115,365"/><polygon fill="#434242" points="190,395 235,395 235,440 190,440"/><polygon fill="#434242" points="265,395 310,395 310,440 265,440"/><polygon fill="#434242" points="335,320 380,320 380,440 335,440"/><polygon fill="#434242" points="115,395 160,395 160,440 115,440"/></g></svg>