<?xml version="1.0" ?><svg clip-rule="evenodd" fill-rule="evenodd" image-rendering="optimizeQuality" shape-rendering="geometricPrecision" text-rendering="geometricPrecision" viewBox="0 0 500 500" xmlns="http://www.w3.org/2000/svg"><g><circle cx="250" cy="250" fill="#fff" r="200" stroke="#434242" stroke-width="40"/><path d="M241 221v-42c-6 0-12 2-15 5-4 4-6 8-6 14 0 5 2 9 5 13s9 7 16 10zm20 107c7-1 12-3 16-7s6-9 6-15-2-11-5-16c-4-4-10-7-17-11v49zm-20 72v-31c-25-1-44-7-57-19-12-13-19-31-19-55h50c0 11 2 19 6 24 5 5 11 8 20 9v-55c-25-8-43-17-54-29-12-11-17-25-17-42 0-19 6-34 19-45 12-11 30-18 52-19v-18h20v18c22 1 39 6 52 18 12 11 18 27 19 47h-50c0-8-2-14-6-18-3-4-8-6-15-6v49c27 10 46 20 58 31 11 12 16 27 16 45s-6 33-20 45c-13 12-31 19-54 20v31h-20z" fill="#279DFF"/><line fill="none" stroke="#434242" stroke-width="60" x1="77" x2="423" y1="150" y2="350"/></g></svg>