<?xml version="1.0" ?><svg clip-rule="evenodd" fill-rule="evenodd" image-rendering="optimizeQuality" shape-rendering="geometricPrecision" text-rendering="geometricPrecision" viewBox="0 0 500 500" xmlns="http://www.w3.org/2000/svg"><path d="M222 397l-79 35c-14 6-16 4-14-11 2-29 5-57 8-86 3-23-1-36-17-53l-57-64c-11-12-10-14 5-17 28-7 56-13 85-19 23-4 33-12 44-32l44-75c8-13 10-13 18 0l44 75c11 20 21 28 44 32 29 6 57 12 85 19 15 3 16 5 5 17l-57 64c-16 17-20 30-17 53 3 29 6 57 8 86 2 15 0 17-14 11l-79-35c-21-10-35-10-56 0zm9-48l-53 24c-10 4-11 3-10-8 2-19 4-38 6-58 2-15-1-24-12-35l-39-44c-7-8-6-9 4-11 19-5 38-9 57-13 16-3 23-8 30-22l30-50c5-9 7-9 12 0l30 50c7 14 14 19 30 22 19 4 38 8 57 13 10 2 11 3 4 11l-39 44c-11 11-14 20-12 35 2 20 4 39 6 58 1 11 0 12-10 8l-53-24c-15-7-23-7-38 0z" fill="#434242"/></svg>