<?xml version="1.0" ?><svg clip-rule="evenodd" fill-rule="evenodd" image-rendering="optimizeQuality" shape-rendering="geometricPrecision" text-rendering="geometricPrecision" viewBox="0 0 500 500" xmlns="http://www.w3.org/2000/svg"><defs><radialGradient cx="250" cy="250" fx="250" fy="250" gradientUnits="userSpaceOnUse" id="a" r="207"><stop offset="0" stop-color="#fff"/><stop offset=".588" stop-color="#f5f5f5"/><stop offset="1" stop-color="#979798"/></radialGradient></defs><circle cx="250" cy="250" fill="#008BFF" r="225" stroke="#434242" stroke-width="10"/><circle cx="250" cy="250" fill="url(#a)" r="185" stroke="#434242" stroke-width="10"/><path d="M407 247h-16v1c0 2 1 4 2 5 2 2 4 2 7 3v1h-21v-1l6-2c1-1 2-1 3-3v-4h-15l-1 1c-1 1-1 2-1 3v2c0 4 1 7 3 9 2 3 4 4 8 5v1l-13-1v-35h1v1c0 1 0 2 1 3 0 0 0 1 1 1h34c1 0 1 0 2-1v-4h2v34h-12v-2c2 0 5-1 6-2l3-4v-11zm-146 117l1 13h-2c0-3-2-6-4-8s-5-3-7-3-4 1-5 2-2 2-2 3 0 2 1 3c0 1 1 2 3 3 0 0 3 1 6 3 5 2 8 5 10 7 1 2 2 4 2 7s-1 6-4 8c-3 3-6 4-10 4h-4c-1-1-2-1-4-2h-4l-1 2h-1v-15h1c1 4 2 7 5 10 2 2 5 3 8 3 2 0 4-1 5-2 2-1 2-2 2-4 0-1 0-2-1-3 0-1-1-2-2-2-1-1-3-2-5-3-4-2-7-4-8-5-2-1-3-3-4-4-1-2-1-4-1-6 0-3 1-5 3-8 3-2 6-3 9-3h4l3 2c2 0 3 1 3 1 1 0 1-1 1-1 1 0 1-1 1-2h1zm-135-84h-1v-2l-2-1s-2-1-5-2l-33-13v-1l26-10-26-11v-1l33-13c3-2 5-3 6-3 1-1 1-2 1-3h1v18h-1v-3c-1-1-1-1-2-1l-5 2-19 7 15 7 4-2c3-1 4-1 5-2 1 0 2-1 2-2v-2h1v19h-1v-3s0-1-1-1h-1s-2 0-4 1l-19 7 17 7c2 1 3 1 4 1 0 0 1 1 2 1 0 0 1-1 2-1v-3h1v10zm117-188l20 25v-17c0-3 0-4-1-5s-2-2-5-2v-1h14v1c-2 0-3 1-4 1 0 0-1 1-1 2 0 0-1 2-1 4v33h-1l-27-33v25c0 3 1 4 2 5s2 1 3 1h1v1h-14v-1c2 0 4 0 5-1s1-2 1-5v-28l-1-1c-1-1-1-2-2-2-1-1-2-1-3-1v-1h14z" fill="#434242"/><path d="M430 250h-15m-330 0h-15m180-180v15m0 330v15m174-133l-15-4m-318-86l-15-4m221-127l-4 15m-86 318l-4 15m203-84l-13-7m-286-166l-13-7m246-66l-8 13m-165 286l-7 13m217-29l-10-10m-234-234l-10-10m254 0l-10 10m-234 234l-10 10m217 29l-8-13m-165-286l-7-13m246 66l-13 8m-286 165l-13 7m203 84l-4-15m-86-318l-4-15m221 127l-15 4m-318 86l-15 4" fill="none" stroke="#434242" stroke-linecap="round" stroke-width="7.5"/><polygon fill="#CDCDCE" points="250,345 267,267 345,250 267,233 250,155 233,233 155,250 233,267"/><polygon fill="none" points="356,144 235,235 144,356 265,265" stroke="#434242" stroke-linejoin="round" stroke-width="10"/><polygon fill="#279DFF" points="353,147 265,265 250,250"/><polygon fill="#474747" points="147,353 235,235 250,250"/><polygon fill="#6D6D6D" points="147,353 265,265 250,250"/><polygon fill="#0076D8" points="353,147 235,235 250,250"/><circle fill="#fff" r="20" stroke="#434242" stroke-width="5" transform="matrix(.455 .455 -.455 .455 249.998 250)"/></svg>