<?xml version="1.0" ?><svg clip-rule="evenodd" fill-rule="evenodd" image-rendering="optimizeQuality" shape-rendering="geometricPrecision" text-rendering="geometricPrecision" viewBox="0 0 500 500" xmlns="http://www.w3.org/2000/svg"><defs><linearGradient gradientUnits="userSpaceOnUse" id="a" x1="234.999" x2="234.999" y1="128.649" y2="356.351"><stop offset="0" stop-color="#FCFCFD"/><stop offset="1" stop-color="#fff"/></linearGradient><radialGradient cx="316.998" cy="291.257" fx="316.998" fy="291.257" gradientUnits="userSpaceOnUse" id="b" r="135.299"><stop offset="0" stop-color="#0af"/><stop offset="1" stop-color="#008BFF"/></radialGradient></defs><g><path d="M140 70h190c60 0 110 49 110 110v50c0 61-50 110-110 110h-110c-10 0-10 2-15 5l-75 65c-5 4-10 5-10 0l10-65c1-5-9-6-17-8-47-12-83-56-83-107v-50c0-61 50-110 110-110z" fill="url(#a)" stroke="#434242" stroke-width="10"/><path d="M390 190h-140c-44 0-80 36-80 81v36c0 45 36 81 80 81h81c7 0 7 2 11 4l55 47c3 3 7 4 7 0l-7-47c-1-4 7-5 12-7 35-8 61-40 61-78v-36c0-45-36-81-80-81z" fill="url(#b)" stroke="#434242" stroke-width="10"/><path d="M215 275l48-47c2-3 4-5 9-5s10 5 10 9v24c0 3 2 5 4 5h53c45 0 81 36 81 81 0 5-5 5-5 0 0-18-15-33-33-33h-96c-2 0-4 2-4 5v23c0 5-5 10-10 10s-7-2-9-5l-48-47c-7-7-7-13 0-20z" fill="#FEFEFE"/></g></svg>