<?xml version="1.0" ?><svg clip-rule="evenodd" fill-rule="evenodd" image-rendering="optimizeQuality" shape-rendering="geometricPrecision" text-rendering="geometricPrecision" viewBox="0 0 500 500" xmlns="http://www.w3.org/2000/svg"><defs><linearGradient gradientUnits="userSpaceOnUse" id="a" x1="315.712" x2="45.834" y1="216.897" y2="216.897"><stop offset="0" stop-color="#008BFF"/><stop offset="1" stop-color="#0af"/></linearGradient><linearGradient gradientUnits="userSpaceOnUse" id="b" x1="82.124" x2="188.908" y1="160.538" y2="273.256"><stop offset="0" stop-color="#008BFF"/><stop offset="1" stop-color="#4EAFFF"/></linearGradient></defs><g><path d="M53 135h256c4 0 7 3 7 7v150c0 4-3 7-7 7h-256c-4 0-7-3-7-7v-150c0-4 3-7 7-7z" fill="url(#a)"/><path d="M53 135h172v2c0 71-40 132-99 162h-73c-4 0-7-3-7-7v-150c0-4 3-7 7-7z" fill="url(#b)"/><path d="M53 135h256c4 0 7 3 7 7v150c0 4-3 7-7 7h-256c-4 0-7-3-7-7v-150c0-4 3-7 7-7zm38 214h53v-21h-100c-8 0-14-7-14-15v-178c0-8 6-15 14-15h272c8 0 14 7 14 15v178c0 8-6 15-14 15h-100v21h53c6 0 11 5 11 11v3h-200v-3c0-6 5-11 11-11z" fill="#434242"/><circle cx="180" cy="328" fill="#279DFF" r="12"/><path d="M360 360h100c6 0 10-4 10-10v-250c0-6-4-10-10-10h-100c-6 0-10 4-10 10v250c0 6 4 10 10 10z" fill="#434242"/><path d="M365 130h90v-20h-90v20zm0 35h90v-20h-90v20z" fill="#fff"/><path d="M400 240v90c0 6 4 10 10 10s10-4 10-10v-90c0-5-4-10-10-10s-10 5-10 10z" fill="#fff"/><path d="M425 195c0 8-7 15-15 15s-15-7-15-15 7-15 15-15 15 7 15 15z" fill="#008BFF"/><line fill="none" stroke="#008BFF" stroke-linecap="round" stroke-width="7.5" x1="410" x2="410" y1="330" y2="280"/><line fill="none" stroke="#008BFF" stroke-linecap="round" stroke-width="7.5" x1="410" x2="410" y1="240" y2="265"/></g></svg>