<?xml version="1.0" ?><svg clip-rule="evenodd" fill-rule="evenodd" image-rendering="optimizeQuality" shape-rendering="geometricPrecision" text-rendering="geometricPrecision" viewBox="0 0 500 500" xmlns="http://www.w3.org/2000/svg"><defs><linearGradient gradientUnits="userSpaceOnUse" id="a" x1="249.991" x2="249.991" y1="445.22" y2="428.846"><stop offset="0" stop-color="#727273"/><stop offset="1" stop-color="#151515"/></linearGradient><linearGradient gradientUnits="userSpaceOnUse" id="b" x1="163.071" x2="336.929" y1="408.819" y2="408.819"><stop offset="0" stop-color="#2B2B2B"/><stop offset=".502" stop-color="#5A5A5A"/><stop offset="1" stop-color="#2B2B2B"/></linearGradient><linearGradient gradientUnits="userSpaceOnUse" id="c" x1="252.538" x2="247.462" y1="23.282" y2="403.222"><stop offset="0" stop-color="#008BFF"/><stop offset="1" stop-color="#0af"/></linearGradient><linearGradient gradientUnits="userSpaceOnUse" id="d" x1="304.399" x2="195.601" y1="158.853" y2="267.651"><stop offset="0" stop-color="#4C4B4C"/><stop offset="1" stop-color="#1D1F1F"/></linearGradient><linearGradient gradientUnits="userSpaceOnUse" id="e" x1="210.053" x2="289.947" y1="253.199" y2="173.305"><stop offset="0" stop-color="#4C4B4C"/><stop offset="1" stop-color="#1D1F1F"/></linearGradient></defs><g><path d="M327 400c15 15 32 30 48 45 16 14 24 29 16 29h-44c-64-16-130-16-194 0h-44c-8 0 0-15 16-29l49-45c48 20 104 20 153 0z" fill="url(#a)" stroke="#434242" stroke-width="2"/><path d="M337 384v25c-55 24-119 24-174 0v-25c54 28 120 28 174 0z" fill="url(#b)"/><circle cx="250" cy="213" fill="url(#c)" r="187" stroke="#434242" stroke-width="10"/><circle cx="250" cy="68" fill="#434242" r="15"/><circle cx="250" cy="354" fill="#0060B1" r="18"/><line fill="none" stroke="#434242" stroke-width="10" x1="63" x2="437" y1="213" y2="213"/><circle cx="250" cy="213" fill="#fff" r="90"/><circle cx="250" cy="213" fill="url(#d)" r="80"/><circle cx="250" cy="213" fill="none" r="38"/><circle cx="250" cy="213" fill="url(#e)" r="62"/><circle cx="250" cy="213" fill="#F0F0F0" r="35"/><circle cx="250" cy="213" fill="#008BFF" r="31"/><circle cx="250" cy="213" fill="#0af" r="20"/><circle cx="250" cy="213" fill="#E8E8E8" r="5"/></g></svg>