<?xml version="1.0" ?><svg clip-rule="evenodd" fill-rule="evenodd" image-rendering="optimizeQuality" shape-rendering="geometricPrecision" text-rendering="geometricPrecision" viewBox="0 0 500 500" xmlns="http://www.w3.org/2000/svg"><defs><linearGradient gradientUnits="userSpaceOnUse" id="a" x1="424.998" x2="75.002" y1="224.686" y2="224.686"><stop offset="0" stop-color="#008BFF"/><stop offset="1" stop-color="#0af"/></linearGradient></defs><g><path d="M425 30v105h-10c-6-24-13-42-20-52-8-11-18-19-31-25-7-4-20-6-38-6h-30v288c0 20 1 33 3 38 3 5 7 9 13 13 7 4 15 5 26 5h13v10h-203v-10h13c11 0 20-2 27-6 5-2 9-7 12-14 2-4 3-16 3-36v-288h-29c-26 0-45 6-56 17-17 15-27 37-32 66h-11v-105h350z" fill="none" stroke="#434242" stroke-linejoin="round" stroke-width="10"/><path d="M425 30v105h-10c-6-24-13-42-20-52-8-11-18-19-31-25-7-4-20-6-38-6h-30v288c0 20 1 33 3 38 3 5 7 9 13 13 7 4 15 5 26 5h13v10h-203v-10h13c11 0 20-2 27-6 5-2 9-7 12-14 2-4 3-16 3-36v-288h-29c-26 0-45 6-56 17-17 15-27 37-32 66h-11v-105h350z" fill="url(#a)"/><path d="M427 455l-38 26c-2 1-4 1-5 0-2-1-3-3-3-5v-16h-262v16c0 2-1 4-3 5-1 1-3 1-5 0l-38-26c-2-1-3-3-3-5s1-4 3-5l38-26c2-1 4-1 5 0 2 1 3 3 3 5v16h262v-16c0-2 1-4 3-5 1-1 3-1 5 0l38 26c2 1 3 3 3 5s-1 4-3 5z" fill="#434242"/></g></svg>