<?xml version="1.0" ?><svg clip-rule="evenodd" fill-rule="evenodd" image-rendering="optimizeQuality" shape-rendering="geometricPrecision" text-rendering="geometricPrecision" viewBox="0 0 500 500" xmlns="http://www.w3.org/2000/svg"><defs><linearGradient gradientUnits="userSpaceOnUse" id="a" x1="339.997" x2="159.999" y1="454.132" y2="454.132"><stop offset="0" stop-color="#434242"/><stop offset=".58" stop-color="#474747"/><stop offset="1" stop-color="#434242"/></linearGradient><linearGradient gradientUnits="userSpaceOnUse" id="b" x1="339.997" x2="159.999" y1="59.132" y2="59.132"><stop offset="0" stop-color="#434242"/><stop offset=".58" stop-color="#474747"/><stop offset="1" stop-color="#434242"/></linearGradient><linearGradient gradientUnits="userSpaceOnUse" id="c" x1="339.997" x2="159.999" y1="144.566" y2="144.566"><stop offset="0" stop-color="#C5C5C5"/><stop offset=".478" stop-color="#fff"/><stop offset=".588" stop-color="#f5f5f5"/><stop offset=".69" stop-color="#fff"/><stop offset="1" stop-color="#D5D6D6"/></linearGradient><linearGradient gradientUnits="userSpaceOnUse" id="d" x1="339.997" x2="159.999" y1="325.002" y2="325.002"><stop offset="0" stop-color="#0076D8"/><stop offset=".478" stop-color="#76C1FF"/><stop offset=".588" stop-color="#9DD2FF"/><stop offset=".69" stop-color="#76C1FF"/><stop offset="1" stop-color="#008BFF"/></linearGradient></defs><g><path d="M160 439h180v15c0 3-2 5-5 5h-170c-3 0-5-2-5-5v-15z" fill="url(#a)" stroke="#434242" stroke-width="10"/><path d="M340 79h-180v-15c0-3 2-5 5-5h50c3 0 5-2 5-5v-10c0-3 2-5 5-5h50c3 0 5 2 5 5v10c0 3 2 5 5 5h50c3 0 5 2 5 5v15z" fill="url(#b)" stroke="#434242" stroke-width="10"/><rect fill="url(#c)" height="131" stroke="#434242" stroke-width="10" width="180" x="160" y="79"/><line fill="none" stroke="#434242" stroke-width="10" x1="160" x2="340" y1="349" y2="349"/><rect fill="url(#d)" height="230" stroke="#434242" stroke-width="10" width="180" x="160" y="210"/><path d="M240 105h20v20h20v20h-20v20h-20v-20h-20v-20h20v-20zm40 270v20h-60v-20h60z" fill="#434242"/></g></svg>