<?xml version="1.0" ?><svg clip-rule="evenodd" fill-rule="evenodd" image-rendering="optimizeQuality" shape-rendering="geometricPrecision" text-rendering="geometricPrecision" viewBox="0 0 500 500" xmlns="http://www.w3.org/2000/svg"><g><circle cx="250" cy="250" fill="#fff" r="200" stroke="#434242" stroke-width="40"/><path d="M209 263h36c-1 15-7 27-17 36-22 19-64 17-85-4-21-22-21-68 0-91 20-21 63-22 84-4 10 8 16 20 17 35h-36c-1-6-3-10-6-13-8-8-25-6-31 3-8 11-8 38 0 49 7 10 23 11 32 3 3-3 5-8 6-14zm128 0h36c-1 15-7 27-17 36-21 19-64 17-84-4-22-22-22-68 0-91 20-21 62-22 84-4 9 8 15 20 16 35h-36c-1-6-3-10-6-13-8-8-24-6-31 3-7 11-7 38 1 49 6 10 23 11 31 3 3-3 5-8 6-14z" fill="#279DFF"/></g></svg>