<?xml version="1.0" ?><svg clip-rule="evenodd" fill-rule="evenodd" image-rendering="optimizeQuality" shape-rendering="geometricPrecision" text-rendering="geometricPrecision" viewBox="0 0 500 500" xmlns="http://www.w3.org/2000/svg"><defs><linearGradient gradientUnits="userSpaceOnUse" id="a" x1="286.793" x2="62.371" y1="209.448" y2="433.87"><stop offset="0" stop-color="#008BFF"/><stop offset="1" stop-color="#0af"/></linearGradient></defs><g><path d="M286 66c26-26 62-36 96-29 2 1 3 2 4 4 0 2 0 3-2 5l-55 55c-1 1-2 3-2 4v64c0 2 2 5 5 5h64c1 0 2-1 3-2l56-55c1-1 3-2 5-1 1 0 3 2 3 3 7 34-3 69-29 95-41 41-107 41-148 0s-41-107 0-148z" fill="#434242" stroke="#2B2A29" stroke-width=".1"/><path d="M310 232l-208 209c-12 11-32 12-43 0-1-3-20-23 0-43l209-208c4 9 10 17 18 24 7 8 15 14 24 18z" fill="url(#a)" stroke="#434242" stroke-width="10"/></g></svg>