<?xml version="1.0" ?><svg clip-rule="evenodd" fill-rule="evenodd" image-rendering="optimizeQuality" shape-rendering="geometricPrecision" text-rendering="geometricPrecision" viewBox="0 0 500 500" xmlns="http://www.w3.org/2000/svg"><defs><linearGradient gradientUnits="userSpaceOnUse" id="a" x1="243.904" x2="243.904" y1="40.001" y2="460.001"><stop offset="0" stop-color="#FCFCFD"/><stop offset="1" stop-color="#fff"/></linearGradient></defs><g stroke="#434242"><path d="M100 460h288c18 0 33-15 33-33v-354c0-18-15-33-33-33h-288c-18 0-33 15-33 33v354c0 18 15 33 33 33z" fill="url(#a)"/><path d="M454 90v30c0 8-7 15-15 15h-18v-60h18c8 0 15 7 15 15zm0 75v30c0 8-7 15-15 15h-18v-60h18c8 0 15 7 15 15zm0 75v30c0 8-7 15-15 15h-18v-60h18c8 0 15 7 15 15zm0 75v30c0 8-7 15-15 15h-18v-60h18c8 0 15 7 15 15z" fill="#008BFF"/><path d="M46 120h70m-70 65h70m-70 65h70m-70 65h70m-70 65h70" fill="none"/></g></svg>