<?xml version="1.0" ?><svg clip-rule="evenodd" fill-rule="evenodd" image-rendering="optimizeQuality" shape-rendering="geometricPrecision" text-rendering="geometricPrecision" viewBox="0 0 500 500" xmlns="http://www.w3.org/2000/svg"><defs><linearGradient gradientUnits="userSpaceOnUse" id="a" x1="269.997" x2="119.997" y1="245.936" y2="245.936"><stop offset="0" stop-color="#008BFF"/><stop offset="1" stop-color="#0af"/></linearGradient></defs><g><path d="M54 191h42c2 0 4 2 4 4v111c0 2-2 4-4 4h-41c-8 0-15-7-15-15v-90c0-8 6-14 14-14z" fill="#434242"/><path d="M132 175l110-52c6-3 13-2 19 2 6 3 9 9 9 16v209c0 7-3 13-9 17-5 4-12 5-18 2l-110-44c-8-3-13-10-13-19v-113c0-8 4-15 12-18z" fill="url(#a)" stroke="#434242" stroke-width="10"/><path d="M424 186l15 15c2 1 2 5 0 7l-39 38c-2 2-2 6 0 8l39 38c2 2 2 6 0 7l-15 15c-1 2-5 2-7 0l-38-39c-2-2-6-2-8 0l-38 39c-2 2-6 2-7 0l-15-15c-2-1-2-5 0-7l39-38c2-2 2-6 0-8l-39-38c-2-2-2-6 0-7l15-15c1-2 5-2 7 0l38 39c2 2 6 2 8 0l38-39c2-2 6-2 7 0z" fill="#434242"/></g></svg>