<?xml version="1.0" ?><svg clip-rule="evenodd" fill-rule="evenodd" image-rendering="optimizeQuality" shape-rendering="geometricPrecision" text-rendering="geometricPrecision" viewBox="0 0 500 500" xmlns="http://www.w3.org/2000/svg"><defs><linearGradient gradientUnits="userSpaceOnUse" id="a" x1="465.388" x2="115.392" y1="250" y2="250"><stop offset="0" stop-color="#008BFF"/><stop offset="1" stop-color="#0af"/></linearGradient></defs><g><path d="M465 55v105h-10c-6-24-13-41-20-52-7-10-18-19-31-25-7-4-20-5-38-5h-29v300c0 20 1 33 3 38s6 9 13 13c6 4 15 6 26 6h12v10h-203v-10h13c11 0 20-2 27-6 5-3 9-8 12-14 2-5 3-17 3-37v-300h-28c-26 0-45 5-57 16-17 16-27 38-31 66h-12v-105h350z" fill="none" stroke="#434242" stroke-linejoin="round" stroke-width="10"/><path d="M465 55v105h-10c-6-24-13-41-20-52-7-10-18-19-31-25-7-4-20-5-38-5h-29v300c0 20 1 33 3 38s6 9 13 13c6 4 15 6 26 6h12v10h-203v-10h13c11 0 20-2 27-6 5-3 9-8 12-14 2-5 3-17 3-37v-300h-28c-26 0-45 5-57 16-17 16-27 38-31 66h-12v-105h350z" fill="url(#a)"/><path d="M65 53l26 42c1 2 1 5 0 7s-3 3-5 3h-16v290h16c2 0 4 1 5 3s1 5 0 7l-26 42c-1 2-3 3-5 3s-4-1-5-3l-26-42c-1-2-1-5 0-7s3-3 5-3h16v-290h-16c-2 0-4-1-5-3s-1-5 0-7l26-42c1-2 3-3 5-3s4 1 5 3z" fill="#434242"/></g></svg>