<?xml version="1.0" ?><svg clip-rule="evenodd" fill-rule="evenodd" image-rendering="optimizeQuality" shape-rendering="geometricPrecision" text-rendering="geometricPrecision" viewBox="0 0 500 500" xmlns="http://www.w3.org/2000/svg"><defs><linearGradient gradientUnits="userSpaceOnUse" id="a" x1="458.187" x2="41.809" y1="249.999" y2="249.999"><stop offset="0" stop-color="#008BFF"/><stop offset="1" stop-color="#0af"/></linearGradient></defs><path d="M83 266l63 42c2 1 2 3 2 5s-2 4-4 4l-23 7c13 46 52 82 99 93v-254c-24-11-40-35-40-63 0-39 31-70 70-70s70 31 70 70c0 28-16 52-40 63v254c47-11 86-47 99-93l-23-7c-2 0-4-2-4-4s0-4 2-5l63-42c1-1 3-1 4-1s3 1 3 3l33 68c1 2 1 4 0 5-2 2-4 2-5 2l-24-7c-23 79-96 134-178 134s-155-55-178-134l-24 7c-1 0-3 0-5-2-1-1-1-3 0-5l33-68c0-2 2-3 3-3s3 0 4 1zm167-196c17 0 30 13 30 30s-13 30-30 30-30-13-30-30 13-30 30-30z" fill="url(#a)" stroke="#434242" stroke-width="10"/></svg>