<?xml version="1.0" ?><svg clip-rule="evenodd" fill-rule="evenodd" image-rendering="optimizeQuality" shape-rendering="geometricPrecision" text-rendering="geometricPrecision" viewBox="0 0 500 500" xmlns="http://www.w3.org/2000/svg"><defs><linearGradient gradientUnits="userSpaceOnUse" id="a" x1="89.301" x2="396.549" y1="60.4" y2="358.204"><stop offset="0" stop-color="#008BFF"/><stop offset="1" stop-color="#0af"/></linearGradient><linearGradient gradientUnits="userSpaceOnUse" id="b" x1="31.601" x2="338.849" y1="40.945" y2="338.749"><stop offset="0" stop-color="#008BFF"/><stop offset="1" stop-color="#0af"/></linearGradient></defs><g><path d="M465 270l-213-213c-2-2-4-3-6-3h-144c-5 0-9 5-9 10v143c0 3 1 5 2 7l213 213c4 3 10 3 13 0l144-144c4-4 4-9 0-13z" fill="url(#a)" stroke="#434242" stroke-width="10"/><path d="M407 251l-213-213c-1-2-4-3-6-3h-144c-5 0-9 4-9 9v144c0 2 1 5 3 6l213 213c3 4 9 4 13 0l143-143c4-4 4-10 0-13z" fill="url(#b)" stroke="#434242" stroke-width="10"/><circle fill="#434242" r="40" transform="matrix(.735 -.735 .735 .735 106.847 106.851)"/><circle fill="#fff" r="40" transform="matrix(.432 -.432 .432 .432 106.847 106.851)"/><path d="M133 251l79-80 7 7-79 79-7-6zm26 26l118-118 6 7-117 117-7-6zm26 26l54-54 6 7-53 53-7-6zm26 26l87-86 6 6-86 86-7-6zm26 26l103-103 7 7-103 103-7-7z" fill="#fff"/></g></svg>