<?xml version="1.0" ?><svg clip-rule="evenodd" fill-rule="evenodd" image-rendering="optimizeQuality" shape-rendering="geometricPrecision" text-rendering="geometricPrecision" viewBox="0 0 500 500" xmlns="http://www.w3.org/2000/svg"><defs><linearGradient gradientUnits="userSpaceOnUse" id="a" x1="194.404" x2="356.358" y1="184.676" y2="184.676"><stop offset="0" stop-color="#FCFCFD"/><stop offset="1" stop-color="#fff"/></linearGradient><linearGradient gradientUnits="userSpaceOnUse" id="b" x1="132.507" x2="132.507" y1="325.914" y2="169.588"><stop offset="0" stop-color="#008BFF"/><stop offset="1" stop-color="#0af"/></linearGradient></defs><g stroke="#434242" stroke-linejoin="round" stroke-width="10"><path d="M250 297c4 6 11 10 20 10h108c9 0 17-8 17-17 0-10-8-18-17-18h5c9 0 17-8 17-17 0-10-8-18-17-18h5c9 0 17-8 17-17 0-10-8-18-17-18h5c9 0 17-8 17-17 0-10-8-18-17-18h-56c-7 0-17-10-17-20 0-15 10-30 10-50s-15-35-25-25c-14 56-50 91-55 115 0 3 0 5-5 5h-95c-5 0-10 5-10 10v85c0 5 5 10 10 10h100z" fill="url(#a)"/><path d="M90 316c0 5 4 10 10 10h65c6 0 10-5 10-10v-128c0-6-4-10-10-10h-75v138z" fill="url(#b)"/></g></svg>