<?xml version="1.0" ?><svg clip-rule="evenodd" fill-rule="evenodd" image-rendering="optimizeQuality" shape-rendering="geometricPrecision" text-rendering="geometricPrecision" viewBox="0 0 500 500" xmlns="http://www.w3.org/2000/svg"><defs><linearGradient gradientUnits="userSpaceOnUse" id="a" x1="260.796" x2="260.796" y1="137.738" y2="323.101"><stop offset="0" stop-color="#C5C5C5"/><stop offset=".478" stop-color="#fff"/><stop offset="1" stop-color="#C5C5C5"/></linearGradient><linearGradient gradientUnits="userSpaceOnUse" id="b" x1="111.349" x2="111.349" y1="296.361" y2="164.473"><stop offset="0" stop-color="#434242"/><stop offset="1" stop-color="#8D8D8E"/></linearGradient></defs><g><circle cx="381" cy="230" fill="#434242" r="89"/><path d="M279 141h-189c-7 0-13 6-13 13v153c0 7 6 13 13 13h189c63 0 114 38 153 82 6 7 12 0 12-7v-329c0-7-6-14-12-7-39 44-90 82-153 82z" fill="url(#a)"/><path d="M301 321c13 2 26 6 38 10v-202c-12 5-25 9-38 11v181z" fill="#008BFF" stroke="#434242" stroke-width="5"/><path d="M279 141h-189c-7 0-13 6-13 13v153c0 7 6 13 13 13h189c63 0 114 38 153 82 6 7 12 0 12-7v-329c0-7-6-14-12-7-39 44-90 82-153 82z" fill="none" stroke="#434242" stroke-width="10"/><path d="M75 141h30c9 0 16 7 16 16v22c0 36 26 51 58 51 6 0 13 6 13 13v77h-117c-9 0-16-7-16-16v-26c-17-10-28-29-28-51 0-21 11-40 28-51v-19c0-9 7-16 16-16z" fill="url(#b)" stroke="#434242" stroke-width="10"/><path d="M192 320h-70l38 114c3 8 6 13 19 13h51c6 0 13-6 13-13v-13c0-25-38-25-51-101z" fill="#434242" stroke="#434242" stroke-width="10"/></g></svg>