<?xml version="1.0" ?><svg clip-rule="evenodd" fill-rule="evenodd" image-rendering="optimizeQuality" shape-rendering="geometricPrecision" text-rendering="geometricPrecision" viewBox="0 0 500 500" xmlns="http://www.w3.org/2000/svg"><defs><linearGradient gradientUnits="userSpaceOnUse" id="a" x1="249.998" x2="249.998" y1="362.299" y2="142.701"><stop offset="0" stop-color="#FCFCFD"/><stop offset="1" stop-color="#fff"/></linearGradient></defs><g><path d="M40 410h420v-310c0-5-5-10-10-10h-400c-5 0-10 4-10 10v310z" fill="#434242"/><path d="M50 390h400v-285c0-3-2-5-5-5h-390c-3 0-5 2-5 5v285z" fill="url(#a)"/><path d="M110 355h60v15h-25v20h-10v-20h-25v-15zm245 35h10v-20h25v-15h-60v15h25v20z" fill="#0076D8"/></g></svg>