<?xml version="1.0" ?><svg clip-rule="evenodd" fill-rule="evenodd" image-rendering="optimizeQuality" shape-rendering="geometricPrecision" text-rendering="geometricPrecision" viewBox="0 0 500 500" xmlns="http://www.w3.org/2000/svg"><defs><radialGradient cx="250.06" cy="262.992" fx="250.06" fy="262.992" gradientUnits="userSpaceOnUse" id="a" r="206.799"><stop offset="0" stop-color="#fff"/><stop offset=".588" stop-color="#f5f5f5"/><stop offset="1" stop-color="#979798"/></radialGradient></defs><g><path d="M367 423l21-18c3-3 6-3 9-2 4 1 6 3 7 6l18 58c1 3 1 6-1 9s-5 4-8 4h-9c-3 0-5-1-7-4l-32-39c-3-5-3-11 2-14zm-232 0l-21-18c-3-3-6-3-9-2-4 1-6 3-7 6l-18 58c-1 3-1 6 1 9s5 4 8 4h9c3 0 5-1 7-4l32-39c3-5 2-11-2-14z" fill="#434242"/><circle cx="250" cy="263" fill="#CDCDCE" r="207" stroke="#434242" stroke-width="10"/><circle cx="250" cy="263" fill="url(#a)" r="169" stroke="#434242" stroke-width="10"/><line fill="none" stroke="#434242" stroke-linecap="round" stroke-width="10.931" x1="334" x2="227" y1="179" y2="286"/><line fill="none" stroke="#E31E24" stroke-linecap="round" stroke-width="10.931" x1="334" x2="227" y1="347" y2="240"/><circle cx="250" cy="263" fill="#434242" r="18"/><path d="M250 98v27m0 303v-27m-165-138h27m303 0h-27m-55-143l-14 24m-151 262l13-24m-74-201l24 13m262 151l-24-13m24-151l-24 13m-262 151l24-13m37-212l13 24m152 262l-14-24" fill="none" stroke="#434242" stroke-linecap="round" stroke-width="15"/><line fill="none" stroke="#434242" stroke-linecap="round" stroke-width="15" x1="250" x2="250" y1="159" y2="306"/><path d="M43 109c28-41 60-66 95-78 14-5 29-8 38 4l19 22c-28 8-55 22-79 42-24 19-43 43-56 69l-20-25c-9-10-5-23 3-34zm317-80c46 20 77 46 95 78 8 13 13 27 4 39l-19 22c-13-26-31-50-55-69-24-20-51-34-79-42l20-24c8-11 22-9 34-4z" fill="#008BFF" stroke="#434242" stroke-width="10"/></g></svg>