<?xml version="1.0" ?><svg clip-rule="evenodd" fill-rule="evenodd" image-rendering="optimizeQuality" shape-rendering="geometricPrecision" text-rendering="geometricPrecision" viewBox="0 0 500 500" xmlns="http://www.w3.org/2000/svg"><defs><linearGradient gradientUnits="userSpaceOnUse" id="a" x1="249.901" x2="290.097" y1="289.886" y2="249.692"><stop offset="0" stop-color="#979798"/><stop offset=".412" stop-color="#C5C5C5"/><stop offset=".6" stop-color="#fff"/><stop offset=".722" stop-color="#CDCDCE"/><stop offset="1" stop-color="#787879"/></linearGradient><linearGradient gradientUnits="userSpaceOnUse" id="b" x1="385.356" x2="335.934" y1="335.726" y2="385.148"><stop offset="0" stop-color="#434242"/><stop offset=".478" stop-color="#545454"/><stop offset="1" stop-color="#434242"/></linearGradient></defs><g><polygon fill="url(#a)" points="234,269 269,234 302,267 267,302"/><path d="M258 307l2-12 35-35 12-3 143 143c14 14 14 36 0 50-14 13-36 13-49 0l-143-143z" fill="url(#b)"/><circle fill="#434242" r="127" stroke="#2B2A29" stroke-width=".1" transform="matrix(.717 -.717 .717 .717 165 164.999)"/><circle fill="#9DD2FF" r="127" transform="matrix(.606 -.606 .606 .606 165 164.999)"/><path d="M245 155v20c0 3-2 5-5 5h-55c-3 0-5 2-5 5v55c0 3-2 5-5 5h-20c-3 0-5-2-5-5v-55c0-3-2-5-5-5h-55c-3 0-5-2-5-5v-20c0-3 2-5 5-5h55c3 0 5-2 5-5v-55c0-3 2-5 5-5h20c3 0 5 2 5 5v55c0 3 2 5 5 5h55c3 0 5 2 5 5z" fill="#434242"/></g></svg>