<?xml version="1.0" ?><svg clip-rule="evenodd" fill-rule="evenodd" image-rendering="optimizeQuality" shape-rendering="geometricPrecision" text-rendering="geometricPrecision" viewBox="0 0 500 500" xmlns="http://www.w3.org/2000/svg"><g><path d="M250 30c121 0 220 98 220 220s-99 220-220 220c-122 0-220-98-220-220s98-220 220-220zm0 190c17 0 30 13 30 30s-13 30-30 30-30-13-30-30 13-30 30-30z" fill="#008BFF"/><path d="M229 229l-135-135c42-41 98-64 156-64v190c-8 0-16 3-21 9zm42 42l135 135c-42 41-98 64-156 64v-190c8 0 16-3 21-9z" fill="#279DFF"/><path d="M229 271l-135 135c-41-42-64-98-64-156h190c0 8 3 16 9 21zm42-42l135-135c41 42 64 98 64 156h-190c0-8-3-16-9-21zm-6 47l95 165c-17 9-34 17-53 22l-49-184 7-3zm-30-52l-95-165c17-9 34-17 53-22l49 184-7 3z" fill="#76C1FF"/><path d="M237 223l-81-172c6-3 13-6 19-8l65 179c-1 0-2 0-3 1z" fill="#9DD2FF"/><path d="M263 277l81 172c-6 3-13 6-19 8l-65-179c1 0 2 0 3-1z" fill="#9DD2FF"/><path d="M250 180c39 0 70 31 70 70s-31 70-70 70-70-31-70-70 31-70 70-70zm0 43c15 0 27 12 27 27s-12 27-27 27-27-12-27-27 12-27 27-27z" fill="#fff"/><path d="M250 30c121 0 220 98 220 220s-99 220-220 220c-122 0-220-98-220-220s98-220 220-220zm0 190c17 0 30 13 30 30s-13 30-30 30-30-13-30-30 13-30 30-30z" fill="none" stroke="#434242" stroke-width="10"/></g></svg>