<?xml version="1.0" ?><svg clip-rule="evenodd" fill-rule="evenodd" image-rendering="optimizeQuality" shape-rendering="geometricPrecision" text-rendering="geometricPrecision" viewBox="0 0 500 500" xmlns="http://www.w3.org/2000/svg"><defs><linearGradient gradientUnits="userSpaceOnUse" id="a" x1="249.998" x2="249.998" y1="155.999" y2="383.999"><stop offset="0" stop-color="#008BFF"/><stop offset="1" stop-color="#0af"/></linearGradient></defs><path d="M100 460h-30c-6 0-10-4-10-10v-90c0-6 4-10 10-10h30c6 0 10 4 10 10v90c0 6-4 10-10 10zm110 0h-30c-6 0-10-4-10-10v-180c0-6 4-10 10-10h30c6 0 10 4 10 10v180c0 6-4 10-10 10zm115 0h-30c-6 0-10-4-10-10v-270c0-6 4-10 10-10h30c6 0 10 4 10 10v270c0 6-4 10-10 10zm105 0h-30c-6 0-10-4-10-10v-360c0-6 4-10 10-10h30c6 0 10 4 10 10v360c0 6-4 10-10 10z" fill="url(#a)" stroke="#434242" stroke-width="10"/></svg>