<?xml version="1.0" ?><svg clip-rule="evenodd" fill-rule="evenodd" image-rendering="optimizeQuality" shape-rendering="geometricPrecision" text-rendering="geometricPrecision" viewBox="0 0 500 500" xmlns="http://www.w3.org/2000/svg"><defs><linearGradient gradientUnits="userSpaceOnUse" id="a" x1="249.999" x2="249.999" y1="139.002" y2="371"><stop offset="0" stop-color="#FCFCFD"/><stop offset="1" stop-color="#fff"/></linearGradient></defs><g><path d="M40 90h420v310c0 6-5 10-10 10h-400c-5 0-10-4-10-10v-310z" fill="#434242" stroke="#434242" stroke-width="10"/><path d="M65 60h370c14 0 25 11 25 25v15h-420v-15c0-14 11-25 25-25z" fill="#279DFF" stroke="#434242" stroke-width="10"/><path d="M50 110h400v285c0 3-2 5-5 5h-390c-3 0-5-2-5-5v-285z" fill="url(#a)" stroke="#434242" stroke-width="10"/><rect fill="none" height="59.997" stroke="#898989" stroke-width="7.5" width="89.998" x="70" y="315"/><rect fill="none" height="59.997" stroke="#898989" stroke-width="7.5" width="89.998" x="160" y="315"/><rect fill="none" height="59.997" stroke="#898989" stroke-width="7.5" width="89.998" x="250" y="315"/><rect fill="none" height="59.997" stroke="#898989" stroke-width="7.5" width="89.998" x="340" y="315"/><rect fill="none" height="59.998" stroke="#898989" stroke-width="7.5" width="89.998" x="70" y="255"/><rect fill="none" height="59.998" stroke="#898989" stroke-width="7.5" width="89.998" x="160" y="255"/><rect fill="none" height="59.998" stroke="#898989" stroke-width="7.5" width="89.998" x="250" y="255"/><rect fill="none" height="59.998" stroke="#898989" stroke-width="7.5" width="89.998" x="340" y="255"/><rect fill="#9DD2FF" height="59.997" stroke="#434242" stroke-width="7.5" width="89.998" x="70" y="135"/><rect fill="#9DD2FF" height="59.997" stroke="#434242" stroke-width="7.5" width="89.998" x="160" y="135"/><rect fill="none" height="59.998" stroke="#898989" stroke-width="7.5" width="89.998" x="250" y="195"/><rect fill="none" height="59.998" stroke="#898989" stroke-width="7.5" width="89.998" x="340" y="195"/><rect fill="#9DD2FF" height="59.997" stroke="#434242" stroke-width="7.5" width="89.998" x="340" y="135"/><rect fill="#9DD2FF" height="59.997" stroke="#434242" stroke-width="7.5" width="89.998" x="250" y="135"/><rect fill="#9DD2FF" height="59.998" stroke="#434242" stroke-width="7.5" width="89.998" x="70" y="195"/><rect fill="#9DD2FF" height="59.998" stroke="#434242" stroke-width="7.5" width="89.998" x="160" y="195"/></g></svg>