<?xml version="1.0" ?><svg clip-rule="evenodd" fill-rule="evenodd" image-rendering="optimizeQuality" shape-rendering="geometricPrecision" text-rendering="geometricPrecision" viewBox="0 0 5000 5000" xmlns="http://www.w3.org/2000/svg"><defs><style type="text/css"><![CDATA[
    .str0 {stroke:#434242;stroke-width:200;stroke-linejoin:round}
    .fil0 {fill:none}
    .fil1 {fill:url(#id0)}
   ]]></style><linearGradient gradientUnits="userSpaceOnUse" id="id0" x1="4750" x2="250" y1="2500" y2="2500"><stop offset="0" stop-color="#008BFF"/><stop offset="1" stop-color="#0af"/></linearGradient></defs><g id="Layer_x0020_1"><path class="fil0 str0" d="M2856 3481h-1484l-184 426c-59 142-88 261-88 354 0 124 48 215 143 274 57 34 195 61 416 78v112h-1409v-112c151-24 277-90 374-196 99-108 220-329 363-665l1515-3477h59l1529 3573c146 343 265 559 359 648 72 68 171 106 301 117v112h-2050v-112h84c165 0 281-24 347-72 46-34 68-85 68-150 0-39-5-80-18-121-4-19-35-101-94-245l-231-544zm-101-237l-632-1487-647 1487h1279z"/><path class="fil1" d="M2856 3481h-1484l-184 426c-59 142-88 261-88 354 0 124 48 215 143 274 57 34 195 61 416 78v112h-1409v-112c151-24 277-90 374-196 99-108 220-329 363-665l1515-3477h59l1529 3573c146 343 265 559 359 648 72 68 171 106 301 117v112h-2050v-112h84c165 0 281-24 347-72 46-34 68-85 68-150 0-39-5-80-18-121-4-19-35-101-94-245l-231-544zm-101-237l-632-1487-647 1487h1279z" id="1"/></g></svg>