<?xml version="1.0" ?><svg clip-rule="evenodd" fill-rule="evenodd" image-rendering="optimizeQuality" shape-rendering="geometricPrecision" text-rendering="geometricPrecision" viewBox="0 0 5000 5000" xmlns="http://www.w3.org/2000/svg"><defs><style type="text/css"><![CDATA[
    .str0 {stroke:#434242;stroke-width:100}
    .fil0 {fill:#434242}
    .fil1 {fill:#008BFF}
   ]]></style></defs><g id="Layer_x0020_1"><path class="fil0" d="M600 3900h3800c110 0 200 90 200 200v400c0 110-90 200-200 200h-3800c-110 0-200-90-200-200v-400c0-110 90-200 200-200zm3209 200h400c55 0 100 45 100 100s-45 100-100 100h-400c-55 0-100-45-100-100s45-100 100-100zm-809 0h400c55 0 100 45 100 100s-45 100-100 100h-400c-55 0-100-45-100-100s45-100 100-100z"/><path class="fil1 str0" d="M2701 3499l1000-1000c50-50 100-100 100-200s-100-200-200-200h-500c-50 0-100-50-100-100v-1499c0-50-50-100-100-100h-800c-50 0-100 50-100 100v1499c0 50-50 100-100 100h-500c-100 0-200 100-200 200s50 150 100 200l1000 1000c135 135 265 135 400 0z"/></g></svg>