<?xml version="1.0" ?><svg clip-rule="evenodd" fill-rule="evenodd" image-rendering="optimizeQuality" shape-rendering="geometricPrecision" text-rendering="geometricPrecision" viewBox="0 0 5000 5000" xmlns="http://www.w3.org/2000/svg"><defs><style type="text/css"><![CDATA[
    .str0 {stroke:#434242;stroke-width:100;stroke-linejoin:round}
    .fil0 {fill:url(#id0)}
   ]]></style><linearGradient gradientUnits="userSpaceOnUse" id="id0" x1="599.94" x2="4389.16" y1="2500" y2="2500"><stop offset="0" stop-color="#008BFF"/><stop offset="1" stop-color="#0af"/></linearGradient></defs><path class="fil0 str0" d="M2968 4061c-71 71-142 142-284 142s-284-142-284-284v-1091l-1232 1233c-71 71-142 142-284 142s-284-142-284-284v-2838c0-142 142-284 284-284s213 71 284 142l1232 1230v-1088c0-142 142-284 284-284s213 71 284 142l1278 1276c70 70 141 141 142 281 1 131-56 200-142 287l-1278 1278z" id="Layer_x0020_1"/></svg>