<?xml version="1.0" ?><svg clip-rule="evenodd" fill-rule="evenodd" image-rendering="optimizeQuality" shape-rendering="geometricPrecision" text-rendering="geometricPrecision" viewBox="0 0 5000 5000" xmlns="http://www.w3.org/2000/svg"><defs><style type="text/css"><![CDATA[
    .str0 {stroke:#434242;stroke-width:200;stroke-linecap:round;stroke-linejoin:round}
    .fil0 {fill:none}
    .fil1 {fill:url(#id0)}
   ]]></style><linearGradient gradientUnits="userSpaceOnUse" id="id0" x1="2500.01" x2="2500.01" y1="450" y2="4550"><stop offset="0" stop-color="#008BFF"/><stop offset="1" stop-color="#0af"/></linearGradient></defs><g id="Layer_x0020_1"><path class="fil0 str0" d="M2750 700c0-137-112-250-250-250s-250 113-250 250v1249c0 25-19 61-49 77l-1650 896c-26 16-51 53-51 78v500c0 25 23 40 50 33l1650-566c25-9 50 8 50 33v801c0 49-31 61-51 68l-349 131c-24 12-50 11-50 46v463c0 26 21 41 45 41l605-185v135c0 27 22 50 50 50s50-23 50-50v-135l605 185c24 0 45-15 45-41v-463c0-35-26-34-50-46l-349-131c-20-7-51-19-51-68v-801c0-25 25-42 50-33l1650 566c27 7 50-8 50-33v-500c0-25-25-62-51-78l-1649-896c-31-16-50-52-50-77v-1249z"/><path class="fil1" d="M2750 700c0-137-112-250-250-250s-250 113-250 250v1249c0 25-19 61-49 77l-1650 896c-26 16-51 53-51 78v500c0 25 23 40 50 33l1650-566c25-9 50 8 50 33v801c0 49-31 61-51 68l-349 131c-24 12-50 11-50 46v463c0 26 21 41 45 41l605-185v135c0 27 22 50 50 50s50-23 50-50v-135l605 185c24 0 45-15 45-41v-463c0-35-26-34-50-46l-349-131c-20-7-51-19-51-68v-801c0-25 25-42 50-33l1650 566c27 7 50-8 50-33v-500c0-25-25-62-51-78l-1649-896c-31-16-50-52-50-77v-1249z" id="1"/></g></svg>