<?xml version="1.0" ?><svg clip-rule="evenodd" fill-rule="evenodd" image-rendering="optimizeQuality" shape-rendering="geometricPrecision" text-rendering="geometricPrecision" viewBox="0 0 5000 5000" xmlns="http://www.w3.org/2000/svg"><defs><style type="text/css"><![CDATA[
    .str0 {stroke:#434242;stroke-width:100}
    .fil0 {fill:url(#id0)}
    .fil1 {fill:url(#id1)}
   ]]></style><radialGradient cx="48%" fx="48%" fy="50%" id="id0"><stop offset="0" stop-color="#0af"/><stop offset="1" stop-color="#008BFF"/></radialGradient><radialGradient fx="50%" fy="50%" id="id1" r="38%"><stop offset="0" stop-color="#fff"/><stop offset="1" stop-color="#FCFCFD"/></radialGradient></defs><g id="Layer_x0020_1"><path class="fil0 str0" d="M300 2500c0-1215 985-2200 2200-2200s2200 985 2200 2200-985 2200-2200 2200-2200-985-2200-2200z"/><path class="fil1 str0" d="M2300 801l-1000 1000c-50 50-100 100-100 200s100 200 200 200h500c50 0 100 50 100 100v1900c0 50 50 100 100 100h800c50 0 100-50 100-100v-1900c0-50 50-100 100-100h500c100 0 200-100 200-200s-50-150-100-200l-1000-1000c-135-135-265-135-400 0z"/></g></svg>