<?xml version="1.0" ?><svg clip-rule="evenodd" fill-rule="evenodd" image-rendering="optimizeQuality" shape-rendering="geometricPrecision" text-rendering="geometricPrecision" viewBox="0 0 5000 5000" xmlns="http://www.w3.org/2000/svg"><defs><style type="text/css"><![CDATA[
    .str0 {stroke:#2B2A29;stroke-width:100;stroke-linejoin:round}
    .fil0 {fill:url(#id0)}
   ]]></style><radialGradient cy="48%" fx="50%" fy="48%" id="id0"><stop offset="0" stop-color="#0af"/><stop offset="1" stop-color="#008BFF"/></radialGradient></defs><path class="fil0 str0" d="M2385 2065c-49-367-202-635-285-1065-50-300 100-600 400-600s450 300 400 600c-83 430-236 698-285 1065 79 21 149 62 204 118 293-226 450-492 780-779 235-194 570-214 720 46s-35 540-320 646c-414 143-723 145-1065 286 11 38 16 77 16 118s-5 80-16 118c342 141 651 143 1065 286 285 106 470 386 320 646s-485 240-720 46c-330-287-487-553-780-779-55 56-125 97-204 118 49 367 202 635 285 1065 50 300-100 600-400 600s-450-300-400-600c83-430 236-698 285-1065-79-21-149-62-204-118-293 226-450 492-780 779-235 194-570 214-720-46s35-540 320-646c414-143 723-145 1065-286-11-38-16-77-16-118s5-80 16-117c-342-142-651-144-1065-287-285-106-470-386-320-646s485-240 720-46c330 287 487 553 780 779 55-56 125-97 204-118z" id="Layer_x0020_1"/></svg>