<?xml version="1.0" ?><svg clip-rule="evenodd" fill-rule="evenodd" image-rendering="optimizeQuality" shape-rendering="geometricPrecision" text-rendering="geometricPrecision" viewBox="0 0 5000 5000" xmlns="http://www.w3.org/2000/svg"><defs><style type="text/css"><![CDATA[
    .str0 {stroke:#434242;stroke-width:200;stroke-linejoin:round}
    .fil0 {fill:none}
    .fil1 {fill:url(#id0)}
   ]]></style><linearGradient gradientUnits="userSpaceOnUse" id="id0" x1="4550" x2="450" y1="2500" y2="2500"><stop offset="0" stop-color="#008BFF"/><stop offset="1" stop-color="#0af"/></linearGradient></defs><g id="Layer_x0020_1"><path class="fil0 str0" d="M3288 2364c423 98 722 218 893 357 246 200 369 458 369 776 0 334-134 612-404 831-329 265-809 397-1437 397h-2259v-114c206 0 345-19 418-58 74-38 125-89 154-150 31-62 45-214 45-457v-2892c0-243-14-395-45-458-29-63-81-113-155-151-75-37-214-56-417-56v-114h2131c510 0 870 46 1082 136 213 91 379 226 502 407 122 180 184 372 184 575 0 214-79 404-235 572-157 167-432 300-826 399zm-1194-89c313 0 544-35 693-105 148-69 263-168 342-295s120-289 120-486-40-358-118-483c-78-126-190-222-336-288s-379-97-701-95v1752zm0 255v1590c0 117 29 207 88 266 59 60 146 91 263 91 172 0 329-39 475-117 145-77 256-189 333-336s116-311 116-491c0-207-43-393-129-558-88-164-215-280-385-347-170-68-424-100-761-98z"/><path class="fil1" d="M3288 2364c423 98 722 218 893 357 246 200 369 458 369 776 0 334-134 612-404 831-329 265-809 397-1437 397h-2259v-114c206 0 345-19 418-58 74-38 125-89 154-150 31-62 45-214 45-457v-2892c0-243-14-395-45-458-29-63-81-113-155-151-75-37-214-56-417-56v-114h2131c510 0 870 46 1082 136 213 91 379 226 502 407 122 180 184 372 184 575 0 214-79 404-235 572-157 167-432 300-826 399zm-1194-89c313 0 544-35 693-105 148-69 263-168 342-295s120-289 120-486-40-358-118-483c-78-126-190-222-336-288s-379-97-701-95v1752zm0 255v1590c0 117 29 207 88 266 59 60 146 91 263 91 172 0 329-39 475-117 145-77 256-189 333-336s116-311 116-491c0-207-43-393-129-558-88-164-215-280-385-347-170-68-424-100-761-98z" id="1"/></g></svg>