<?xml version="1.0" ?><svg clip-rule="evenodd" fill-rule="evenodd" image-rendering="optimizeQuality" shape-rendering="geometricPrecision" text-rendering="geometricPrecision" viewBox="0 0 5000 5000" xmlns="http://www.w3.org/2000/svg"><defs><style type="text/css"><![CDATA[
    .str1 {stroke:#434242;stroke-width:100}
    .str0 {stroke:#434242;stroke-width:200}
    .fil0 {fill:#FFFFFF}
    .fil1 {fill:url(#id0)}
   ]]></style><linearGradient gradientUnits="userSpaceOnUse" id="id0" x1="4166.34" x2="833.66" y1="4155.43" y2="844.57"><stop offset="0" stop-color="#008BFF"/><stop offset="1" stop-color="#0af"/></linearGradient></defs><g id="Layer_x0020_1"><rect class="fil0 str0" height="4400" rx="400" ry="400" width="4400" x="300" y="300"/><path class="fil1 str1" d="M4048 1167l309 308c57 56 57 149 0 205l-2167 2153c-56 56-149 56-206 0-413-410-929-923-1341-1333-57-56-57-149 0-205l309-308c57-56 150-56 207 0l825 821c52 51 155 51 206 0l1651-1641c57-56 150-56 207 0z"/></g></svg>