<?xml version="1.0" ?><svg clip-rule="evenodd" fill-rule="evenodd" image-rendering="optimizeQuality" shape-rendering="geometricPrecision" text-rendering="geometricPrecision" viewBox="0 0 50 50" xmlns="http://www.w3.org/2000/svg"><defs><linearGradient gradientUnits="userSpaceOnUse" id="a" x1="30.18" x2="6.248" y1="6.391" y2="30.323"><stop offset="0" stop-color="#008BFF"/><stop offset="1" stop-color="#0af"/></linearGradient><linearGradient gradientUnits="userSpaceOnUse" id="b" x1="28.675" x2="36.037" y1="28.818" y2="36.18"><stop offset="0" stop-color="#FCFCFD"/><stop offset="1" stop-color="#fff"/></linearGradient><linearGradient gradientUnits="userSpaceOnUse" id="c" x1="38.793" x2="18.492" y1="31.475" y2="11.174"><stop offset="0" stop-color="#008BFF"/><stop offset=".502" stop-color="#4EAFFF"/><stop offset="1" stop-color="#008BFF"/></linearGradient><linearGradient gradientUnits="userSpaceOnUse" id="d" x1="21.264" x2="18.288" y1="28.742" y2="31.718"><stop offset="0" stop-color="#FCFCFD"/><stop offset="1" stop-color="#fff"/></linearGradient><linearGradient gradientUnits="userSpaceOnUse" id="e" x1="20.29" x2="13.207" y1="36.768" y2="29.686"><stop offset="0" stop-color="#008BFF"/><stop offset=".502" stop-color="#4EAFFF"/><stop offset="1" stop-color="#008BFF"/></linearGradient><linearGradient gradientUnits="userSpaceOnUse" id="f" x1="14.045" x2="6.945" y1="35.961" y2="43.061"><stop offset="0" stop-color="#FCFCFD"/><stop offset="1" stop-color="#fff"/></linearGradient><linearGradient gradientUnits="userSpaceOnUse" id="g" x1="43.915" x2="40.524" y1="6.091" y2="9.482"><stop offset="0" stop-color="#FCFCFD"/><stop offset="1" stop-color="#fff"/></linearGradient></defs><g><path d="M7 9c-1-1 0-3 2-2 7 6 16 13 22 21l-3 3c-8-6-15-14-21-22z" fill="url(#a)" stroke="#434242" stroke-width=".5"/><path d="M31 28l5 6v1l-1 1h-1c-2-1-4-3-6-5l3-3z" fill="url(#b)" stroke="#434242" stroke-width=".5"/><path d="M35 36c-1 2 0 4 1 5 3 3 8 1 8 1-4-3 1-7-8-7l-1 1z" fill="#434242"/><path d="M39 41c-1-1 0-2-3-3 0 2 2 3 3 3z" fill="#fff"/><line fill="none" stroke="#434242" stroke-width=".5" x1="29" x2="32" y1="32" y2="29"/><g><path d="M40 7l3 3c-6 8-14 16-22 22l-3-3c6-8 14-16 22-22z" fill="url(#c)" stroke="#434242" stroke-linejoin="round" stroke-width=".5"/><path d="M22 32h-1l-3-3v-1l4 4z" fill="url(#d)" stroke="#434242" stroke-linejoin="round" stroke-width=".5"/><path d="M21 32l-4 4c0 1-1 1-1 1l-3-3s0-1 1-1l4-4 3 3z" fill="url(#e)" stroke="#434242" stroke-linejoin="round" stroke-width=".5"/><path d="M13 34l3 3h-1l-2-2v-1z" fill="#434242" stroke="#434242" stroke-linejoin="round" stroke-width=".5"/><path d="M7 43l2-6h1l3-2 2 2-2 3v1l-6 2z" fill="url(#f)" stroke="#434242" stroke-linejoin="round" stroke-width=".5"/><path d="M12 38v1h-1l-4 4 4-4v-1h1z" fill="#434242"/><path d="M42 6c1 0 2 1 2 2v1l-1 1-3-3 1-1h1z" fill="url(#g)" stroke="#434242" stroke-linejoin="round" stroke-width=".5"/></g></g></svg>